<svg xmlns="http://www.w3.org/2000/svg" width="653.727" height="494" viewBox="0 0 653.727 494"><defs><style>.a{opacity:0.5;}.b{fill:#ef6f7c;}.c{fill:#a5cda5;}.d{fill:#ee7f8a;}.e{fill:#ffcd94;}.f{fill:#212121;}.g,.s{fill:#f1f1f3;}.g{mix-blend-mode:multiply;isolation:isolate;}.h{fill:#fff;}.i{fill:#e98c95;}.j{fill:#e6e4e7;}.k{fill:#6c83a8;}.l{fill:#db6e73;}.m{fill:#2a4063;}.n{fill:#ede9e6;}.o{fill:#ffd0bd;}.p{fill:#ffb59f;}.q{fill:#9bb2d8;}.r{fill:#88bd91;}.t{fill:#ffb35d;}</style></defs><g transform="translate(-197.483 -465.024)"><g class="a" transform="translate(306.209 465.024)"><g transform="translate(0 57.858)"><g transform="translate(455.639 266.164)"><path class="b" d="M670.693,285.972c-3.919,0-5.885-1.819-7.786-3.577-1.841-1.7-3.579-3.311-7.106-3.311s-5.266,1.608-7.107,3.311c-1.9,1.758-3.867,3.577-7.785,3.577s-5.885-1.818-7.786-3.577c-1.841-1.7-3.58-3.311-7.107-3.311s-5.266,1.608-7.107,3.311c-1.9,1.758-3.867,3.577-7.785,3.577s-5.886-1.819-7.787-3.577c-1.841-1.7-3.58-3.311-7.107-3.311s-5.267,1.608-7.109,3.311c-1.9,1.758-3.867,3.577-7.786,3.577v-1c3.527,0,5.266-1.608,7.107-3.311,1.9-1.759,3.868-3.577,7.788-3.577s5.885,1.818,7.786,3.577c1.841,1.7,3.58,3.311,7.108,3.311s5.266-1.608,7.106-3.311c1.9-1.759,3.867-3.577,7.786-3.577s5.885,1.818,7.786,3.577c1.841,1.7,3.58,3.311,7.107,3.311s5.266-1.608,7.106-3.311c1.9-1.759,3.867-3.577,7.786-3.577s5.884,1.818,7.785,3.577c1.841,1.7,3.58,3.311,7.107,3.311Z" transform="translate(-581.332 -261.536)"/><path class="b" d="M670.693,278.222c-3.919,0-5.885-1.819-7.786-3.577-1.841-1.7-3.579-3.311-7.106-3.311s-5.266,1.608-7.107,3.311c-1.9,1.758-3.867,3.577-7.785,3.577s-5.885-1.818-7.786-3.577c-1.841-1.7-3.58-3.311-7.107-3.311s-5.266,1.608-7.107,3.311c-1.9,1.758-3.867,3.577-7.785,3.577s-5.886-1.819-7.787-3.577c-1.841-1.7-3.58-3.311-7.107-3.311s-5.267,1.608-7.109,3.311c-1.9,1.758-3.867,3.577-7.786,3.577v-1c3.527,0,5.266-1.608,7.107-3.311,1.9-1.759,3.868-3.577,7.788-3.577s5.885,1.818,7.786,3.577c1.841,1.7,3.58,3.311,7.108,3.311s5.266-1.608,7.106-3.311c1.9-1.759,3.867-3.577,7.786-3.577s5.885,1.818,7.786,3.577c1.841,1.7,3.58,3.311,7.107,3.311s5.266-1.608,7.106-3.311c1.9-1.759,3.867-3.577,7.786-3.577s5.884,1.818,7.785,3.577c1.841,1.7,3.58,3.311,7.107,3.311Z" transform="translate(-581.332 -262.309)"/><path class="b" d="M670.693,270.471c-3.919,0-5.885-1.819-7.786-3.577-1.841-1.7-3.579-3.311-7.106-3.311s-5.266,1.608-7.107,3.311c-1.9,1.759-3.867,3.577-7.785,3.577s-5.885-1.818-7.786-3.577c-1.841-1.7-3.58-3.311-7.107-3.311s-5.266,1.608-7.107,3.311c-1.9,1.759-3.867,3.577-7.785,3.577s-5.886-1.819-7.787-3.577c-1.841-1.7-3.58-3.311-7.107-3.311s-5.267,1.608-7.109,3.311c-1.9,1.758-3.867,3.577-7.786,3.577v-1c3.527,0,5.266-1.608,7.107-3.311,1.9-1.759,3.868-3.577,7.788-3.577s5.885,1.818,7.786,3.577c1.841,1.7,3.58,3.311,7.108,3.311s5.266-1.608,7.106-3.311c1.9-1.759,3.867-3.577,7.786-3.577s5.885,1.818,7.786,3.577c1.841,1.7,3.58,3.311,7.107,3.311s5.266-1.608,7.106-3.311c1.9-1.759,3.867-3.577,7.786-3.577s5.884,1.818,7.785,3.577c1.841,1.7,3.58,3.311,7.107,3.311Z" transform="translate(-581.332 -263.083)"/></g><path class="c" d="M158.649,138.667c-3.919,0-5.884-1.819-7.785-3.577-1.841-1.7-3.58-3.312-7.107-3.312s-5.265,1.609-7.106,3.311c-1.9,1.759-3.867,3.578-7.786,3.578s-5.885-1.819-7.786-3.578c-1.841-1.7-3.579-3.311-7.106-3.311s-5.266,1.609-7.107,3.312c-1.9,1.759-3.867,3.578-7.786,3.578s-5.885-1.819-7.786-3.577c-1.841-1.7-3.58-3.312-7.108-3.312s-5.266,1.609-7.107,3.311c-1.9,1.759-3.868,3.578-7.788,3.578v-1c3.528,0,5.267-1.609,7.108-3.312,1.9-1.759,3.867-3.577,7.786-3.577s5.886,1.819,7.788,3.578c1.841,1.7,3.58,3.311,7.107,3.311s5.266-1.609,7.107-3.312c1.9-1.759,3.867-3.578,7.786-3.578s5.884,1.819,7.785,3.577c1.841,1.7,3.58,3.312,7.107,3.312s5.266-1.609,7.107-3.312c1.9-1.759,3.867-3.577,7.785-3.577s5.885,1.819,7.786,3.578c1.841,1.7,3.579,3.311,7.106,3.311Z" transform="translate(-69.288 -114.23)"/><path class="c" d="M158.649,130.916c-3.919,0-5.884-1.818-7.785-3.577-1.841-1.7-3.58-3.311-7.107-3.311s-5.266,1.608-7.106,3.311c-1.9,1.759-3.867,3.577-7.786,3.577s-5.885-1.819-7.786-3.577c-1.841-1.7-3.579-3.311-7.106-3.311s-5.266,1.608-7.107,3.311c-1.9,1.759-3.867,3.577-7.786,3.577s-5.885-1.818-7.786-3.577c-1.841-1.7-3.58-3.311-7.108-3.311s-5.266,1.608-7.107,3.311c-1.9,1.759-3.868,3.577-7.788,3.577v-1c3.528,0,5.267-1.608,7.109-3.311,1.9-1.758,3.867-3.577,7.786-3.577s5.886,1.819,7.787,3.577c1.841,1.7,3.58,3.311,7.107,3.311s5.266-1.608,7.107-3.311c1.9-1.759,3.867-3.577,7.786-3.577s5.884,1.818,7.785,3.577c1.841,1.7,3.58,3.311,7.107,3.311s5.267-1.608,7.107-3.311c1.9-1.758,3.867-3.577,7.785-3.577s5.885,1.819,7.786,3.577c1.841,1.7,3.579,3.311,7.106,3.311Z" transform="translate(-69.288 -115.003)"/><path class="c" d="M158.649,123.165c-3.919,0-5.884-1.818-7.785-3.577-1.841-1.7-3.58-3.311-7.107-3.311s-5.266,1.608-7.106,3.311c-1.9,1.759-3.867,3.577-7.786,3.577s-5.885-1.819-7.786-3.577c-1.841-1.7-3.579-3.311-7.106-3.311s-5.266,1.608-7.107,3.311c-1.9,1.759-3.867,3.577-7.786,3.577s-5.885-1.818-7.786-3.577c-1.841-1.7-3.58-3.311-7.108-3.311s-5.266,1.608-7.107,3.311c-1.9,1.759-3.868,3.577-7.788,3.577v-1c3.528,0,5.267-1.608,7.109-3.311,1.9-1.758,3.867-3.577,7.786-3.577s5.886,1.819,7.787,3.577c1.841,1.7,3.58,3.311,7.107,3.311s5.266-1.608,7.107-3.311c1.9-1.759,3.867-3.577,7.786-3.577s5.884,1.818,7.785,3.577c1.841,1.7,3.58,3.311,7.107,3.311s5.267-1.608,7.107-3.311c1.9-1.758,3.867-3.577,7.785-3.577s5.885,1.819,7.786,3.577c1.841,1.7,3.579,3.311,7.106,3.311Z" transform="translate(-69.288 -115.777)"/><path class="d" d="M-.5-.5H14.061V14.061H-.5ZM13.061.5H.5V13.061H13.061Z" transform="translate(11.031 377.42) rotate(32.637)"/><path class="e" d="M8.208-.5A8.708,8.708,0,1,1-.5,8.208,8.718,8.718,0,0,1,8.208-.5Zm0,16.417A7.708,7.708,0,1,0,.5,8.208,7.717,7.717,0,0,0,8.208,15.917Z" transform="translate(495.423 68.531)"/><path class="c" d="M275.353,61.869l12.866,14.964L257.279,84.3Zm11.041,14.375L275.378,63.432,259.9,82.638Z" transform="translate(-146.511 -24.986)"/><path class="f" d="M349.083,106.931l-.3-.4,38.084-28.9,19.285,25.409L440,77.342l.3.4-34.253,26L386.769,78.328Z" transform="translate(-137.523 -23.5)"/></g><g transform="translate(238.62 119.358)"><path class="g" d="M636.862,258.772v5.341c0,7.611-6.536,13.768-14.626,13.768H382.982c-8.071,0-14.616-6.157-14.616-13.768V174.055H605.439c11.258,0,21.581,9.127,23.045,20.385Z" transform="translate(-368.366 -105.523)"/><g transform="translate(13.393)"><rect class="h" width="252.868" height="156.541" rx="13.821"/><g transform="translate(19.433 51.776)"><path class="e" d="M400.377,203.184h-10a47.972,47.972,0,0,1,47.917-47.917v10A37.96,37.96,0,0,0,400.377,203.184Z" transform="translate(-395.377 -160.267)"/><path class="e" transform="translate(-380.173 -152.665)"/><path class="c" d="M478.608,203.184h-10a37.96,37.96,0,0,0-37.916-37.917v-10A47.971,47.971,0,0,1,478.608,203.184Z" transform="translate(-387.775 -160.267)"/><path class="i" d="M438.294,243.5a47.972,47.972,0,0,1-47.917-47.917h10a37.917,37.917,0,1,0,75.833,0h10A47.971,47.971,0,0,1,438.294,243.5Z" transform="translate(-395.377 -152.665)"/></g><path class="g" d="M13.821,0H239.047a13.821,13.821,0,0,1,13.821,13.821V28.708a0,0,0,0,1,0,0H0a0,0,0,0,1,0,0V13.821A13.821,13.821,0,0,1,13.821,0Z" transform="translate(0 6.822)"/><path class="h" d="M13.821,0H239.047a13.821,13.821,0,0,1,13.821,13.821V28.708a0,0,0,0,1,0,0H0a0,0,0,0,1,0,0V13.821A13.821,13.821,0,0,1,13.821,0Z"/><g transform="translate(80.533 14.354)"><path class="j" d="M94.26,2.5H0A2.5,2.5,0,0,1-2.5,0,2.5,2.5,0,0,1,0-2.5H94.26A2.5,2.5,0,0,1,96.76,0,2.5,2.5,0,0,1,94.26,2.5Z"/><path class="j" d="M48.884,2.5H0A2.5,2.5,0,0,1-2.5,0,2.5,2.5,0,0,1,0-2.5H48.884a2.5,2.5,0,0,1,2.5,2.5A2.5,2.5,0,0,1,48.884,2.5Z" transform="translate(105.909)"/></g><path class="i" d="M401.47,130.339a4.882,4.882,0,1,1-4.882-4.883A4.882,4.882,0,0,1,401.47,130.339Z" transform="translate(-376.735 -115.985)"/><path class="e" d="M417.479,130.339a4.882,4.882,0,1,1-4.882-4.883A4.883,4.883,0,0,1,417.479,130.339Z" transform="translate(-373.288 -115.985)"/><path class="c" d="M433.488,130.339a4.882,4.882,0,1,1-4.883-4.883A4.883,4.883,0,0,1,433.488,130.339Z" transform="translate(-369.842 -115.985)"/><g transform="translate(122.066 51.776)"><path class="e" d="M488.864,237.066a47.917,47.917,0,0,1,33.883-81.8v10A37.917,37.917,0,0,0,495.935,230Z" transform="translate(-479.83 -160.267)"/><path class="i" d="M520.521,238.124a47.6,47.6,0,0,1-33.883-14.035l7.071-7.071a37.67,37.67,0,0,0,26.812,11.106Z" transform="translate(-477.603 -147.289)"/><path class="c" d="M515.145,251.1v-10a37.917,37.917,0,0,0,0-75.835v-10a47.917,47.917,0,0,1,0,95.835Z" transform="translate(-472.228 -160.267)"/></g><g transform="translate(224.236 58.786)"><rect class="i" width="16.828" height="16.828" rx="4.346"/><rect class="e" width="16.828" height="16.828" rx="4.346" transform="translate(0 27.493)"/><rect class="c" width="16.828" height="16.828" rx="4.346" transform="translate(0 54.986)"/></g><path class="j" d="M48.884,2.5H0A2.5,2.5,0,0,1-2.5,0,2.5,2.5,0,0,1,0-2.5H48.884a2.5,2.5,0,0,1,2.5,2.5A2.5,2.5,0,0,1,48.884,2.5Z" transform="translate(140.541 94.693)"/><path class="j" d="M28.957,2.5H0A2.5,2.5,0,0,1-2.5,0,2.5,2.5,0,0,1,0-2.5H28.957a2.5,2.5,0,0,1,2.5,2.5A2.5,2.5,0,0,1,28.957,2.5Z" transform="translate(150.505 105.956)"/><path class="j" d="M48.884,2.5H0A2.5,2.5,0,0,1-2.5,0,2.5,2.5,0,0,1,0-2.5H48.884a2.5,2.5,0,0,1,2.5,2.5A2.5,2.5,0,0,1,48.884,2.5Z" transform="translate(37.908 94.693)"/><path class="j" d="M0-2.5H11.655a2.5,2.5,0,0,1,2.5,2.5V11.655a2.5,2.5,0,0,1-2.5,2.5H0a2.5,2.5,0,0,1-2.5-2.5V0A2.5,2.5,0,0,1,0-2.5Zm9.155,5H2.5V9.155H9.155Z" transform="translate(159.156 72.443)"/><path class="j" d="M0-2.5H11.654a2.5,2.5,0,0,1,2.5,2.5V11.655a2.5,2.5,0,0,1-2.5,2.5H0a2.5,2.5,0,0,1-2.5-2.5V0A2.5,2.5,0,0,1,0-2.5Zm9.154,5H2.5V9.155H9.154Z" transform="translate(55.6 72.443)"/></g></g><g transform="translate(50.645 88.278)"><path class="g" d="M251.156,263.021l.466-1.8.013-.013Zm294.425-98.18a1.809,1.809,0,0,0-2.148.3l-12.2,11.368-46.377,43.174-1.055-1.9-20.35-2.487-.013-.013-27.761,18.943-.013.013L384.918,268.65l-3.5,2.374-2.575-6.746-15.35-40.109-1.947-5.087c14.32-1.419,26.467-9.019,26.442-30.751a41.807,41.807,0,0,0-1.533-11.82H263.045c-.013,1.633-.075,3.165-.214,4.56-17.461,3.794-18.4,21.97-18.453,23.515a.174.174,0,0,0-.038.05c-.251.251-.515.515-.754.791-.98,1.08-1.934,2.223-2.889,3.354-2.977,3.568-5.829,7.323-8.5,11.255-1.445-.791-2.311-1.231-2.311-1.231l-6.406,1.671-3.166-2.311-2.952.44.314.239L197.75,291.01l10.313,8.052c-.867,3.919-5.163,27.7,16.192,36.743-1.332,2.5-2.588,5.075-3.768,7.688-1.143,2.525-2.211,5.1-3.228,7.713a2.394,2.394,0,0,0-.126.352,106.368,106.368,0,0,0-3.63,10.275c-.038.151-.1.3-.138.452-17.272,54.706-11.582,119.85-11.582,119.85h7.185c.1,3.693.214,7.223.314,9.949a13.81,13.81,0,0,0,2.6.239h112.7l-.427-10.187h4.685l6.833-98.948a235.421,235.421,0,0,0,2.362-24.244,201.577,201.577,0,0,0-.138-22.473q-.283-4.371-.729-8.479a160.616,160.616,0,0,0-9.4-40.1c-1.043-2.7-2.11-5.2-3.14-7.487l.214-.477a40.746,40.746,0,0,0,7.135-1.909c1,2.449,2.048,4.849,3.166,7.248a144.526,144.526,0,0,0,10.213,18.34,114.782,114.782,0,0,0,12.85,16.192,20.309,20.309,0,0,0,26.254,2.563,22.166,22.166,0,0,0,8.63-6.193c11.984-13.956,27.208-34.921,43.513-65.308a88.341,88.341,0,0,0,11.444,3.065l-3.957,3.706a3.643,3.643,0,1,0,5.05,5.251l7.864-7.776a74.555,74.555,0,0,0,8.655.1c.553-.025,1.093-.063,1.646-.1a5.383,5.383,0,0,0,2.487,2.1l10.338,4.158a5.18,5.18,0,0,0,5.226-.842,5.25,5.25,0,0,0,1.558-2.236,4.735,4.735,0,0,0,.2-2.424,5.821,5.821,0,0,0-.138-.641,4.905,4.905,0,0,0-1.269-2.173l.729.038a5.151,5.151,0,0,0,5.464-5.05,4.654,4.654,0,0,0-.553-2.362c-.113-.188-.226-.389-.339-.565a4.982,4.982,0,0,0-1.219-1.244,1.812,1.812,0,0,0,.276-.113,5.006,5.006,0,0,0,3.392-.992,4.948,4.948,0,0,0,1.357-1.482,5.118,5.118,0,0,0-1.068-6.557l.075-.075-.013-.013c-.1-.088-.214-.163-.327-.251l-.754-.553a4.221,4.221,0,0,0,.452-.264,5.03,5.03,0,0,0,1.7-2.2,5.144,5.144,0,0,0-2.45-6.519l-2.663-1.332L537.2,176.511l8.818-8.743A1.839,1.839,0,0,0,545.58,164.841Z" transform="translate(-197.75 -86.6)"/><g transform="translate(15.758)"><path class="k" d="M347.318,339.374A236.15,236.15,0,0,1,344.97,363.6l-96.763-16.55L222.726,342.7c.036-.148.093-.3.129-.445a108.208,108.208,0,0,1,3.624-10.28,2.594,2.594,0,0,1,.129-.333,170.826,170.826,0,0,1,13.536-26.423c11.612-18.528,30.011-39.9,57.95-54.235a141.014,141.014,0,0,1,24.224-9.689,73.215,73.215,0,0,1,8.321,12.888c1,1.886,2.053,3.975,3.107,6.286,1.09,2.4,2.218,5.03,3.31,7.9a158.851,158.851,0,0,1,9.394,40.07A196.254,196.254,0,0,1,347.318,339.374Z" transform="translate(-207.11 -66.957)"/><path class="f" d="M346.571,121.888c9.074,53.389,29.726,49.91,29.753,78.4.05,52.866-71.941,22.1-71.941,22.1l3.985-103.838Z" transform="translate(-186.193 -98.399)"/><path class="k" d="M379.038,310.725a20.721,20.721,0,0,1-1.733,2.632q-.465.6-.96,1.146a20.314,20.314,0,0,1-29.747.516,127.809,127.809,0,0,1-23.058-34.505c-11.065-23.626-16.7-50.534-19.136-74.789a20.108,20.108,0,0,1,16.473-21.789,21.569,21.569,0,0,1,3.53-.31A20.061,20.061,0,0,1,342.542,195.1l5.5,14.337v.02l3.819,9.981L367.2,259.53l13.047,34.081A20.354,20.354,0,0,1,379.038,310.725Z" transform="translate(-186.213 -81.731)"/><path class="l" d="M376.324,310a20.314,20.314,0,0,1-29.747.516,127.809,127.809,0,0,1-23.058-34.505c-11.065-23.626-16.7-50.534-19.136-74.789,0,0,24.493,49.017,36.8,74.005a99.183,99.183,0,0,0,5.295,9.454A22.337,22.337,0,0,0,351,303.142a22.077,22.077,0,0,0,17.319,8.308A22.87,22.87,0,0,0,376.324,310Z" transform="translate(-186.193 -77.224)"/><path class="m" d="M339.576,202.926l2.765,20.478c12.593,25.739,3.032,46.061-16.919,47.281l-1.9,5.326c-11.058-23.632-16.7-50.537-19.138-74.8Z" transform="translate(-186.194 -77.225)"/><path class="f" d="M285.7,111.12c28.953-20.024,78.676-3.448,63.136,32.4Z" transform="translate(-190.979 -102.509)"/><g transform="translate(43.078 94.311)"><path class="k" d="M357.048,215.236l-20.71,44.693-3.513,7.562-21.6,46.523c-7.674-4.788-15.422-11.575-22.892-19.748-2.478-2.736-4.956-5.621-7.4-8.654a224.794,224.794,0,0,1-22.319-34.171q-2.606-4.826-4.937-9.745c-6.177-13-11.8-25.7-7.693-36.279.148-.369.315-.74.481-1.109a19.8,19.8,0,0,1,1.609-2.848c4.788-7.1,15.015-13.018,33.931-17.1.647-.129,1.33-.278,2-.388l32.046-5.381,5.972-1,18.251,3.92a15.779,15.779,0,0,1,2.627.74,24.748,24.748,0,0,1,4.1,1.793,23.819,23.819,0,0,1,9.487,9.745,19,19,0,0,1,1.109,2.422A23.963,23.963,0,0,1,357.048,215.236Z" transform="translate(-244.588 -177.588)"/></g><path class="m" d="M338.015,192.47l-.185.185-21.106,25.921,10.88-33.669.925-2.182A23.819,23.819,0,0,1,338.015,192.47Z" transform="translate(-183.032 -81.961)"/><path class="k" d="M336.124,214.8c16.5,36.913-7.163,61.485-39.334,43.228Z" transform="translate(-188.138 -73.745)"/><path class="k" d="M282.472,209.176a16.28,16.28,0,0,1-.278,2.977,17.358,17.358,0,0,1-.906,3.106l-16.013,32.267-26.183,52.755-18.9,3.181c-6.638-36.52,8.266-74.649,30.9-101.775.961-1.128,1.9-2.256,2.884-3.346.241-.278.5-.536.759-.8a16.305,16.305,0,0,1,27.736,11.631Z" transform="translate(-208.166 -79.363)"/><path class="m" d="M296.432,213.809c-7.286,2.9-14.313,2.035-20.859-.166-12.259-4.16-22.725-13.092-29.549-10.651a6.062,6.062,0,0,0-1.571.814s0-.222.019-.629c.961-1.128,1.9-2.256,2.884-3.346.241-.278.5-.536.759-.8,3.051-4.531,8.321-8.562,16.623-11.982C274.3,197.205,285.948,206.451,296.432,213.809Z" transform="translate(-201.545 -80.852)"/><path class="h" d="M348.223,184.047a34.591,34.591,0,0,1-2.135,11.013c-4.7,13.408-16.1,27.816-24.979,38.964a301.7,301.7,0,0,1-28.384-17.783,30.587,30.587,0,0,0,6.957-3.943c10.146-7.586,12.623-19.621,12.7-33.71l-32.038,5.378c-.671.114-1.353.259-2,.392a104.407,104.407,0,0,0-17.3,5.12c-.722-.754-1.423-1.517-2.115-2.271.744-.134,14.687-3.251,15.421-3.334l39.923-6.286,5.656.671Z" transform="translate(-197.838 -83.278)"/><path class="n" d="M335.864,184.046c.083,3.716-.526,6.337-2.157,11.013l-22.46-8.35-4-9.121,28.594,6.458Z" transform="translate(-185.459 -83.277)"/><path class="n" d="M311.952,178.383c-.074,14.09-2.553,26.128-12.7,33.709a30.222,30.222,0,0,1-6.953,3.938c-10.484-7.359-22.134-16.6-31.694-26.756a104.444,104.444,0,0,1,17.309-5.121c.647-.129,1.33-.278,2-.388Z" transform="translate(-197.408 -83.073)"/><path class="o" d="M280.838,143.539l4.885,52.394,26.915,27.354L325.3,157.712Z" transform="translate(-192.224 -91.999)"/><path class="p" d="M314.076,190.285s-16.816-7.227-17.851-26.691l21.051,11.1Z" transform="translate(-188.283 -86.862)"/><path class="o" d="M284.081,130.47l3.755,14.863,1.72,6.774,4.6,18.187a29.224,29.224,0,0,0,19.537,20.7l15.017,4.737A21.313,21.313,0,0,0,356.327,177.2c.888-9.976.882-21.615-2.914-33.98a46.385,46.385,0,0,0-29.642-30.067l-.057-.016-2.406-.72-.259-.065c-1.2-.313-2.438-.57-3.673-.774a44.458,44.458,0,0,0-9.027-.653l-9.714.283A15.478,15.478,0,0,0,284.081,130.47Z" transform="translate(-191.516 -100.358)"/><path class="p" d="M328.721,114.755c3.166,21.2-26.642,42.36-26.642,42.36l-.059-21.4Z" transform="translate(-186.798 -99.372)"/><path class="p" d="M340.785,195.953a21.156,21.156,0,0,1-12.077-.226L313.7,190.989a29.226,29.226,0,0,1-19.539-20.7l-4.6-18.185-1.723-6.782-3.757-14.863A15.483,15.483,0,0,1,298.643,111.2l9.711-.279c2.23-.073,6.616.3,6.616.3L316,138.861l-1.212,34.181c.016,7.595,2.129,11.393,6.826,15.058a30.777,30.777,0,0,0,7.734,4.687C333.485,194.667,338.593,196.723,340.785,195.953Z" transform="translate(-191.517 -100.356)"/><path class="o" d="M302.6,145.034c-41.447-30.374-46.05,24.3-1.5,20.841Z" transform="translate(-195.113 -93.978)"/><path class="f" d="M295.615,157.1c4.345-7.673,4.8-18.754,16.353-31.556,0,0,8.415-7.962,19.5-8.455,0,0-23.808-17.757-44.272-7.024S295.615,157.1,295.615,157.1Z" transform="translate(-192.474 -101.456)"/><path class="f" d="M320.286,124.945c-10.2,36.577,10.843,81.726-13.96,100.223s-47.862-13.844-58.934-6.058c0,0,.229-19.663,18.456-23.62,2.552-25.1-19.052-92.993,29.664-86.024Z" transform="translate(-200.792 -100.855)"/><path class="f" d="M331.8,109.686c-.334,20.1-29.155,41.1-29.155,41.1l-5.155-33.9Z" transform="translate(-187.959 -100.671)"/><g transform="translate(121.224 33.948)"><path class="f" d="M338.7,146.542c.343,3.56-.7,6.575-2.32,6.732s-3.218-2.6-3.561-6.166.7-6.575,2.319-6.732S338.357,142.979,338.7,146.542Z" transform="translate(-300.15 -126.759)"/><path class="o" d="M332.2,141.066c3.259,7.84,8.642,9.455,12.381,9.509a4.653,4.653,0,0,1,4.567,4.285h0a8.015,8.015,0,0,1-4.159,7.681l-9.845,5.356a9.872,9.872,0,0,1-12.748-7.132l-4.457-19.222Z" transform="translate(-303.944 -126.581)"/><g transform="translate(27.678 14.244)"><path class="p" d="M335.992,166.683l-.6-1.1,6.508-3.54a7.391,7.391,0,0,0,3.833-7.08,4.01,4.01,0,0,0-3.949-3.707c-4.056-.059-9.6-1.824-12.952-9.9l1.159-.482c3.094,7.443,8.131,9.068,11.812,9.122a5.262,5.262,0,0,1,5.183,4.863,8.646,8.646,0,0,1-4.486,8.284Z" transform="translate(-328.832 -140.874)"/></g><path class="f" d="M321.5,149.1c.343,3.561-.7,6.576-2.32,6.732s-3.218-2.6-3.561-6.165.695-6.575,2.319-6.732S321.152,145.543,321.5,149.1Z" transform="translate(-304.557 -126.102)"/><path class="f" d="M314.571,137.773c-8.1,3.378-10.321-.779-4.513-4.3C316.3,129.691,324.644,133.572,314.571,137.773Z" transform="translate(-306.798 -128.919)"/><path class="f" d="M332.383,134.6c-6.317-1.025-4.564-5,.72-5.061C338.785,129.469,340.24,135.872,332.383,134.6Z" transform="translate(-301.279 -129.535)"/><path class="h" d="M334.633,163.748l-14.571-1.124s1.639,8.418,5.868,9.328C330.527,172.942,334.633,163.748,334.633,163.748Z" transform="translate(-303.401 -121.058)"/></g><path class="q" d="M334.831,432.265H219.616c-.293-7.9-.749-22.62-.609-29.829l114.427-3.377Z" transform="translate(-208.069 -26.545)"/><path class="k" d="M347.517,350.562l-6.842,98.89h-127S208,384.345,225.272,329.667c.036-.148.093-.3.129-.445,1.109-3.476,2.311-6.915,3.624-10.28a2.587,2.587,0,0,1,.129-.333,133.19,133.19,0,0,1,13.536-26.423L277.565,311.6Z" transform="translate(-209.657 -53.922)"/><path class="m" d="M336.293,259.015c-6.262,3.172-25.555,11.632-25.555,11.632s1.239,29.807-19.379,44.064c-4.549,3.144-9.208,5.787-13.794,8.469-9.726,5.677-19.175,11.483-26.811,22.411-5.048,7.23-9.319,16.7-12.353,29.881-6.9,29.918-4.067,66.531-1.811,85.558H213.678S208,395.924,225.272,341.246c.036-.148.093-.3.129-.445a108.218,108.218,0,0,1,3.624-10.28,2.59,2.59,0,0,1,.129-.333,133.191,133.191,0,0,1,13.536-26.423c11.612-18.528,30.011-39.9,57.95-54.235a184.942,184.942,0,0,0,32.544,3.2c9.227-.019,17.383-2.656,24.594-5.744C357.781,246.985,351.835,256.445,336.293,259.015Z" transform="translate(-209.657 -65.5)"/><path class="p" d="M252.769,312.016c-44.385-1.275-33.943-40.733-33.943-40.733l35.6,19.017Z" transform="translate(-208.383 -59.276)"/><g transform="translate(0 131.712)"><path class="h" d="M260.984,231.4c8.863-11.862,46.94-1.516,46.94-1.516l4.11,4.932Z" transform="translate(-197.31 -202.662)"/><path class="h" d="M267.456,236.313c2.938-11.883-29.692-28.442-29.692-28.442l-9.351,2.453Z" transform="translate(-205.653 -207.232)"/><g transform="translate(19.603)"><path class="r" d="M266.725,230.083l44.7,2.233,1.989,1.913-48.445,1.247Z" transform="translate(-215.892 -201.542)"/><path class="r" d="M269.124,230.595l-12.213-2.509-1.3,2.721,13.331,2.521Z" transform="translate(-218.29 -202.053)"/><path class="r" d="M228.846,207.362,264.521,233.4l-.715,2.757L225.9,207.8Z" transform="translate(-225.9 -207.362)"/></g><path class="c" d="M270.29,232.26l46.876,1.412-19.04,74.036-47.786-3.2Z" transform="translate(-200.036 -200.984)"/><path class="r" d="M240.919,304.318l11.839.7,12.231-44.294,1.475-5.338,1.263-4.607,1.552-5.624,3.425-12.391-12.745-2.483-3.039,11.834-1.665,6.443-.9,3.479-1.732,6.741Z" transform="translate(-202.45 -201.491)"/><path class="h" d="M252.332,246.145l12.471,2.22,1.552-5.624L254,239.7Z" transform="translate(-199.526 -199.078)"/><path class="h" d="M250.24,254.343l12.362,1.945,1.475-5.338-12.1-3.348Z" transform="translate(-200.062 -197.055)"/><path class="c" d="M230.244,207.8,267.8,236.043l-19.04,74.036-38.467-30.028Z" transform="translate(-210.295 -207.25)"/><path class="r" d="M235.344,266.984c7-3.964,6.634,5.165,16.723-1.094,8.734-5.419,16.961-7.424,20.911-6,21.166,7.651,16.446,40.012,16.446,40.012l-51.991-3.055Z" transform="translate(-203.878 -194.02)"/><path class="h" d="M294.777,285.2l-38.237-3.348-.793,3.428,38.237,3.348Z" transform="translate(-198.652 -188.28)"/><path class="h" d="M254.025,242.889l-26.568-17.455-2.486,9.721,26.577,17.351Z" transform="translate(-206.535 -202.733)"/><g transform="translate(30.128 66.283)"><path class="p" d="M235.8,298.42l-1.521-17.414,1.323-12.27a3.265,3.265,0,0,1,4.226-2.765h0a3.264,3.264,0,0,1,2.285,3.044l.2,9.1,2.1,7.671Z" transform="translate(-234.279 -258.671)"/><path class="p" d="M235.49,294.533l5.309-13.54,38.765,12.6c-7.328,8.122-31.337,15.936-31.337,15.936Z" transform="translate(-233.969 -254.784)"/><g transform="translate(6.831)"><path class="p" d="M239.717,286.34l8.732,7.391.352-.574,5.914-9.71.01-.033,4.148-9.6,10.9-9.419a2.426,2.426,0,0,0,.726-2.574h0a2.427,2.427,0,0,0-3.618-1.308l-13.688,8.738-10.552,13.389Z" transform="translate(-239.717 -260.129)"/></g><g transform="translate(14.289 3.419)"><path class="p" d="M245.654,290.248l1.625,2.212L253.111,299l2.414-2.967,5.169-6.381.286-.352,1.011-1.244,6.785-10.04,7.529-11.142a2.5,2.5,0,0,0-.016-2.826l-.082-.119a2.5,2.5,0,0,0-3.84-.333l-10.047,10.188-7.924,8.031-.936.9-4.424,4.276Z" transform="translate(-245.654 -262.851)"/></g><path class="p" d="M263.5,301.991l11.986-5.91,5.307-8.71a2.8,2.8,0,0,0-4.639-3.14l-4.649,6.193-5.643,3.194,6.57-7.1,6.139-11.559a2.514,2.514,0,0,0-.3-2.784,2.5,2.5,0,0,0-3.821-.014l-7.095,8.34L251.4,290.741Z" transform="translate(-229.892 -257.272)"/><path class="o" d="M271.406,272.164l-7.1,8.337,5.08,6.016,6.134-11.558a2.506,2.506,0,0,0-.3-2.784h0A2.5,2.5,0,0,0,271.406,272.164Z" transform="translate(-226.587 -257.271)"/><path class="o" d="M272.809,263.929a2.5,2.5,0,0,0-3.84-.333l-10.047,10.188,6.455,4.233,7.529-11.142a2.5,2.5,0,0,0-.016-2.826Z" transform="translate(-227.966 -259.431)"/><path class="o" d="M250.65,269.249l5.679,4.562,10.9-9.419a2.428,2.428,0,0,0,.725-2.574h0a2.427,2.427,0,0,0-3.618-1.308Z" transform="translate(-230.085 -260.129)"/><path class="o" d="M267.612,288.011l3.981,5.658,5.307-8.71a2.8,2.8,0,0,0-4.639-3.14Z" transform="translate(-225.74 -254.859)"/></g></g><g transform="translate(155.943 78.195)"><g transform="translate(77.117)"><path class="o" d="M450.295,241.795c-.607.129-1.227.273-1.873.417a97.525,97.525,0,0,1-17.88,2.765c-9.366.44-20.854-.8-34.714-6.47l4.731-14.5,27.76-18.93Z" transform="translate(-395.828 -154.429)"/><path class="f" d="M451.941,211.865l-40.363,39.852a3.638,3.638,0,0,1-5.135-.023h0a3.638,3.638,0,0,1,.092-5.221l40.344-37.8Z" transform="translate(-393.38 -153.509)"/><path class="p" d="M441.581,235.833A97.523,97.523,0,0,1,423.7,238.6a5.288,5.288,0,0,1-.844-5.135,5.343,5.343,0,0,1,1.293-1.967,2.776,2.776,0,0,1,.3-.28,1.242,1.242,0,0,1,.3-.2,5.221,5.221,0,0,1,5.258-.563l10.182,4.474A5.534,5.534,0,0,1,441.581,235.833Z" transform="translate(-388.987 -148.05)"/><path class="p" d="M446.3,234.066a5.173,5.173,0,0,1-4.691,2.431l-11.121-.693a5.337,5.337,0,0,1-4.987-5.476,5.413,5.413,0,0,1,.612-2.284,2.773,2.773,0,0,1,.2-.358,1.915,1.915,0,0,1,.2-.281,5.239,5.239,0,0,1,4.824-2.195l11.077,1.048a5.152,5.152,0,0,1,3.762,2.271c.119.176.226.371.334.564a4.661,4.661,0,0,1,.56,2.357A5.146,5.146,0,0,1,446.3,234.066Z" transform="translate(-388.227 -149.28)"/><path class="o" d="M433.779,215.434a5.2,5.2,0,0,0-1.359,1.478,5.012,5.012,0,0,0-.26.484A5.324,5.324,0,0,0,434,224.137l3.837,2.556,5.427,3.6a5.157,5.157,0,0,0,5.89-.144,5.226,5.226,0,0,0,1.35-1.491,5.126,5.126,0,0,0-1.078-6.562l-.009-.013c-.1-.088-.215-.167-.329-.247l-9.072-6.46a2.737,2.737,0,0,0-.276-.177A5.3,5.3,0,0,0,433.779,215.434Z" transform="translate(-386.659 -152.045)"/><path class="o" d="M442.983,243.835a5.173,5.173,0,0,1-5.217.833l-10.339-4.155a5.337,5.337,0,0,1-3.014-6.764,5.417,5.417,0,0,1,1.3-1.976,2.73,2.73,0,0,1,.3-.278,1.788,1.788,0,0,1,.279-.2,5.243,5.243,0,0,1,5.27-.568l10.186,4.477a5.147,5.147,0,0,1,2.857,3.34c.058.2.1.422.139.639a4.652,4.652,0,0,1-.207,2.413A5.164,5.164,0,0,1,442.983,243.835Z" transform="translate(-388.588 -147.979)"/><path class="p" d="M444.239,238.637a5,5,0,0,1-2.971.367l-10.96-1.9c-2.741-.469-5.551-3.024-4.6-6.644,1.477-1.087,3.7-.446,5.492.362l10.186,4.477A5.147,5.147,0,0,1,444.239,238.637Z" transform="translate(-388.223 -148.076)"/><path class="o" d="M447.969,235.023a5.173,5.173,0,0,1-4.69,2.431l-11.121-.695a5.336,5.336,0,0,1-4.987-5.474,5.408,5.408,0,0,1,.612-2.284,2.88,2.88,0,0,1,.2-.359,1.9,1.9,0,0,1,.2-.28,5.24,5.24,0,0,1,4.824-2.2l11.077,1.049a5.144,5.144,0,0,1,3.762,2.271c.119.176.226.369.334.564a4.654,4.654,0,0,1,.56,2.357A5.145,5.145,0,0,1,447.969,235.023Z" transform="translate(-387.8 -149.035)"/><path class="p" d="M447.74,229.5a5,5,0,0,1-2.7,1.283l-11,1.639c-2.748.418-6.22-1.124-6.458-4.859,1.06-1.5,3.371-1.587,5.326-1.383l11.077,1.049A5.144,5.144,0,0,1,447.74,229.5Z" transform="translate(-387.696 -149.046)"/><path class="p" d="M443.968,226.349a5.117,5.117,0,0,1-3.387,2.632l-7.5,1.584a5.282,5.282,0,0,1-6.036-7.3,1.871,1.871,0,0,1,.141-.315,5.283,5.283,0,0,1,3.678-2.772l7.576-1.255a5.122,5.122,0,0,1,3.64.657,5.037,5.037,0,0,1,2.291,3.015A5.106,5.106,0,0,1,443.968,226.349Z" transform="translate(-387.95 -150.907)"/><path class="o" d="M428.87,223.751a2.88,2.88,0,0,0-.171.308c-.072.126-.122.254-.181.371l.009.011a5.214,5.214,0,0,0-.376,3.078,5.3,5.3,0,0,0,6.012,4.291l11.01-1.625a5.168,5.168,0,0,0,1.5-.476,5.158,5.158,0,0,0,2.779-5.6,5.37,5.37,0,0,0-.878-2.022,5.208,5.208,0,0,0-1.185-1.158,5.084,5.084,0,0,0-3.568-.94L433.417,221.2l-.669.078A5.3,5.3,0,0,0,428.87,223.751Z" transform="translate(-387.569 -150.619)"/><path class="p" d="M433.4,222.41l-.67.078a5.3,5.3,0,0,0-3.878,2.471,2.989,2.989,0,0,0-.172.308c-.07.126-.121.254-.18.371l.009.011a5.292,5.292,0,0,0,6.028,2.153l4.2-1.326,9.1-2.882a3.6,3.6,0,0,0,.724-.3,5.141,5.141,0,0,0,1.769-1.417l-.009-.013c-.1-.088-.216-.167-.329-.247l-9.072-6.46a2.753,2.753,0,0,0-.276-.177l-7.586,2.2A5.259,5.259,0,0,0,433.4,222.41Z" transform="translate(-387.459 -151.894)"/><path class="o" d="M432.852,209.305a5.317,5.317,0,0,0,.938,9.1l3.263,1.511,6.851,3.143a5.067,5.067,0,0,0,3.162.367,4.838,4.838,0,0,0,2.045-.9,5.147,5.147,0,0,0-.746-8.716l-3.227-1.61-3.418-1.721-3.315-1.654A5.282,5.282,0,0,0,432.852,209.305Z" transform="translate(-386.895 -153.616)"/><path class="p" d="M443.885,219.356a5.117,5.117,0,0,1-2.944,3.119l-7.173,2.715a5.282,5.282,0,0,1-7.082-6.286,1.8,1.8,0,0,1,.09-.334,5.284,5.284,0,0,1,3.211-3.3l7.293-2.4a5.119,5.119,0,0,1,3.7.093,5.031,5.031,0,0,1,2.726,2.628A5.1,5.1,0,0,1,443.885,219.356Z" transform="translate(-387.972 -152.512)"/><path class="o" d="M448.9,220.12A5.113,5.113,0,0,1,445.727,223l-10.642,3.3a5.282,5.282,0,0,1-6.572-6.818,1.925,1.925,0,0,1,.116-.325,5.283,5.283,0,0,1,3.458-3.042l10.738-2.975a5.113,5.113,0,0,1,3.679.379,5.031,5.031,0,0,1,2.514,2.833A5.093,5.093,0,0,1,448.9,220.12Z" transform="translate(-387.535 -152.412)"/><g transform="translate(4.729)"><g transform="translate(6.421 55.847)"><path class="p" d="M404.7,225.17l23.573-15.953,17.237,2.162-5.375,8.935-6.96,1.195S424.154,242.975,404.7,225.17Z" transform="translate(-404.705 -209.217)"/><path class="p" d="M438.289,210.938l4.875,8.819a4.007,4.007,0,0,1-1.514,5.417h0a4.008,4.008,0,0,1-5.072-.909l-3.664-4.392Z" transform="translate(-397.479 -208.776)"/></g><path class="p" d="M440.717,210.029l-6.095,6.891,1.428,2.542,1.884,3.33a4.168,4.168,0,0,0,.32.507,4.708,4.708,0,0,0,5.375,1.638,4.581,4.581,0,0,0,2.433-1.966,4.687,4.687,0,0,0,.481-3.991l-2.409-7.232Z" transform="translate(-390.62 -153.162)"/><path class="f" d="M435.741,223.305l62.292-58.019a1.843,1.843,0,0,1,2.161-.309h0a1.844,1.844,0,0,1,.437,2.929l-61.607,61.047Z" transform="translate(-390.333 -164.758)"/><path class="o" d="M399.593,224.013l27.761-18.928,20.355,2.481L441.4,218.135l-8.212,1.44S422.625,244.95,399.593,224.013Z" transform="translate(-399.593 -154.428)"/><path class="o" d="M439.183,207.06l5.792,10.39a4.733,4.733,0,0,1-1.765,6.4h0a4.732,4.732,0,0,1-5.992-1.053l-4.343-5.169Z" transform="translate(-391.067 -153.922)"/></g></g><path class="o" d="M419.788,231.935c-17.256,33-33.456,55.423-46.048,70.094a22.088,22.088,0,0,1-15.439,7.762,22.873,22.873,0,0,1-8.086-.941,22.079,22.079,0,0,1-14.148-12.992A22.328,22.328,0,0,1,344.243,269l21.321-14.462,50.722-34.382Z" transform="translate(-334.437 -150.568)"/><path class="p" d="M373.74,290.462a22.088,22.088,0,0,1-15.439,7.762,22.871,22.871,0,0,1-8.086-.941,22.079,22.079,0,0,1-14.148-12.992,22.335,22.335,0,0,1,1.053-18.982c4.689,16.953,13.562,30.336,24.859,30.085C365.659,295.317,369.6,293.787,373.74,290.462Z" transform="translate(-334.437 -139.001)"/></g><path class="q" d="M223.689,427.88l8.247-25.268,11.887,25.268Z" transform="translate(-206.863 -25.635)"/></g></g><g transform="translate(246.257 308.307)"><rect class="g" width="187.28" height="124.322" rx="13.821" transform="translate(0 12.614)"/><g transform="translate(14.554)"><rect class="h" width="187.28" height="124.322" rx="13.821"/><path class="g" d="M13.821,0H173.46A13.821,13.821,0,0,1,187.28,13.821V29.073a0,0,0,0,1,0,0H0a0,0,0,0,1,0,0V13.821A13.821,13.821,0,0,1,13.821,0Z" transform="translate(0 6.909)"/><path class="h" d="M13.821,0H173.46A13.821,13.821,0,0,1,187.28,13.821V29.073a0,0,0,0,1,0,0H0a0,0,0,0,1,0,0V13.821A13.821,13.821,0,0,1,13.821,0Z"/><g transform="translate(81.557 14.536)"><path class="j" d="M25.124,2.5H0A2.5,2.5,0,0,1-2.5,0,2.5,2.5,0,0,1,0-2.5H25.124a2.5,2.5,0,0,1,2.5,2.5A2.5,2.5,0,0,1,25.124,2.5Z"/><path class="j" d="M51.037,2.5H0A2.5,2.5,0,0,1-2.5,0,2.5,2.5,0,0,1,0-2.5H51.037a2.5,2.5,0,0,1,2.5,2.5A2.5,2.5,0,0,1,51.037,2.5Z" transform="translate(36.92)"/></g><path class="i" d="M424.437,270.875a4.944,4.944,0,1,1-4.944-4.944A4.943,4.943,0,0,1,424.437,270.875Z" transform="translate(-399.387 -256.338)"/><path class="e" d="M440.446,270.875a4.944,4.944,0,1,1-4.944-4.944A4.944,4.944,0,0,1,440.446,270.875Z" transform="translate(-395.693 -256.338)"/><path class="c" d="M456.455,270.875a4.944,4.944,0,1,1-4.945-4.944A4.944,4.944,0,0,1,456.455,270.875Z" transform="translate(-392 -256.338)"/></g><g transform="translate(38.926 50.797)"><path class="j" d="M101.031,2.5H0A2.5,2.5,0,0,1-2.5,0,2.5,2.5,0,0,1,0-2.5H101.031a2.5,2.5,0,0,1,2.5,2.5A2.5,2.5,0,0,1,101.031,2.5Z" transform="translate(0 52.169)"/><path class="c" d="M5,44.151H-5V0H5Z" transform="translate(10.106)"/><path class="i" d="M5,38.654H-5V0H5Z" transform="translate(30.194 5.497)"/><path class="e" d="M5,23.651H-5V0H5Z" transform="translate(50.283 20.5)"/><path class="c" d="M5,32.787H-5V0H5Z" transform="translate(70.371 11.364)"/><path class="i" d="M5,22.075H-5V0H5Z" transform="translate(90.459 22.075)"/></g><g transform="translate(150.946 53.157)"><path class="j" d="M37.767,2.5H0A2.5,2.5,0,0,1-2.5,0,2.5,2.5,0,0,1,0-2.5H37.767a2.5,2.5,0,0,1,2.5,2.5A2.5,2.5,0,0,1,37.767,2.5Z"/><path class="j" d="M37.767,2.5H0A2.5,2.5,0,0,1-2.5,0,2.5,2.5,0,0,1,0-2.5H37.767a2.5,2.5,0,0,1,2.5,2.5A2.5,2.5,0,0,1,37.767,2.5Z" transform="translate(0 13.93)"/><path class="j" d="M37.767,2.5H0A2.5,2.5,0,0,1-2.5,0,2.5,2.5,0,0,1,0-2.5H37.767a2.5,2.5,0,0,1,2.5,2.5A2.5,2.5,0,0,1,37.767,2.5Z" transform="translate(0 27.861)"/><path class="j" d="M18.884,2.5H0A2.5,2.5,0,0,1-2.5,0,2.5,2.5,0,0,1,0-2.5H18.884a2.5,2.5,0,0,1,2.5,2.5A2.5,2.5,0,0,1,18.884,2.5Z" transform="translate(0 41.791)"/></g></g><g transform="translate(431.87)"><path class="g" d="M224.514,174.055V320.027a9.321,9.321,0,0,1-9.321,9.321H180.4V193.989a19.934,19.934,0,0,1,19.934-19.934Z" transform="translate(-135.286 -151.624)"/><rect class="h" width="80.306" height="137.976" rx="10.336" transform="translate(0 27.854)"/><path class="s" d="M10.336-.5H69.97A10.836,10.836,0,0,1,80.806,10.336v117.3A10.836,10.836,0,0,1,69.97,138.476H10.336A10.836,10.836,0,0,1-.5,127.639V10.336A10.836,10.836,0,0,1,10.336-.5ZM69.97,137.476a9.847,9.847,0,0,0,9.836-9.836V10.336A9.847,9.847,0,0,0,69.97.5H10.336A9.847,9.847,0,0,0,.5,10.336v117.3a9.847,9.847,0,0,0,9.836,9.836Z" transform="translate(0 27.854)"/><path class="h" d="M149.249,173.4h60.57a9.868,9.868,0,0,0,9.868-9.868h0a9.868,9.868,0,0,0-9.868-9.869h-60.57a9.869,9.869,0,0,0-9.869,9.869h0A9.869,9.869,0,0,0,149.249,173.4Z" transform="translate(-139.38 -153.66)"/><path class="i" d="M155.358,163.034a4.418,4.418,0,1,1-4.418-4.418A4.417,4.417,0,0,1,155.358,163.034Z" transform="translate(-138.667 -153.165)"/><path class="e" d="M171.367,163.034a4.418,4.418,0,1,1-4.418-4.418A4.418,4.418,0,0,1,171.367,163.034Z" transform="translate(-137.069 -153.165)"/><path class="c" d="M187.376,163.034a4.419,4.419,0,1,1-4.419-4.418A4.418,4.418,0,0,1,187.376,163.034Z" transform="translate(-135.471 -153.165)"/><g transform="translate(16.178 98.484)"><path class="j" d="M47.951,2.5H0A2.5,2.5,0,0,1-2.5,0,2.5,2.5,0,0,1,0-2.5H47.951a2.5,2.5,0,0,1,2.5,2.5A2.5,2.5,0,0,1,47.951,2.5Z"/><path class="j" d="M47.951,2.5H0A2.5,2.5,0,0,1-2.5,0,2.5,2.5,0,0,1,0-2.5H47.951a2.5,2.5,0,0,1,2.5,2.5A2.5,2.5,0,0,1,47.951,2.5Z" transform="translate(0 14.002)"/><path class="j" d="M47.951,2.5H0A2.5,2.5,0,0,1-2.5,0,2.5,2.5,0,0,1,0-2.5H47.951a2.5,2.5,0,0,1,2.5,2.5A2.5,2.5,0,0,1,47.951,2.5Z" transform="translate(0 28.004)"/><path class="j" d="M26.89,2.5H0A2.5,2.5,0,0,1-2.5,0,2.5,2.5,0,0,1,0-2.5H26.89A2.5,2.5,0,0,1,29.39,0,2.5,2.5,0,0,1,26.89,2.5Z" transform="translate(0 42.006)"/></g><g transform="translate(8.64 40.779)"><path class="c" d="M194.92,235.48a7.958,7.958,0,0,1-5.994-3.173c-2.068-2.42-3.779-6.16-5.085-11.116-2.371-9-5.264-15.845-8.6-20.342-2.912-3.93-6.091-5.89-9.193-5.67-6.75.48-12.458,10.906-14.2,25.942l-.993-.115c.9-7.708,2.805-14.319,5.524-19.118a19.206,19.206,0,0,1,4.411-5.488,9.245,9.245,0,0,1,5.191-2.218,8.682,8.682,0,0,1,5.1,1.32,17.617,17.617,0,0,1,4.967,4.752c3.408,4.6,6.356,11.559,8.76,20.683,1.267,4.809,2.908,8.416,4.878,10.721,1.683,1.97,3.538,2.917,5.512,2.815,2.2-.114,4.466-1.566,6.376-4.088a21.07,21.07,0,0,0,3.815-9.35l.988.154a22.085,22.085,0,0,1-4.006,9.8c-2.091,2.761-4.62,4.354-7.122,4.483Q195.085,235.48,194.92,235.48Z" transform="translate(-146.825 -190.346)"/><path class="e" d="M169.881,195.054a4.316,4.316,0,1,1-4.316-4.316A4.316,4.316,0,0,1,169.881,195.054Z" transform="translate(-145.837 -190.738)"/><path class="f" d="M63.027.25H0v-.5H63.027Z" transform="translate(0 30.718)"/></g></g><g transform="translate(13.269 122.844)"><path class="m" d="M246.857,127.574V102.007a14.366,14.366,0,0,0-14.366-14.366h-49.4a14.366,14.366,0,0,0-14.367,14.366v25.36a14.366,14.366,0,0,0,14.367,14.366h77.757Z" transform="translate(-168.725 -87.641)"/><g transform="translate(14.541 20.426)"><path class="h" d="M49.055,2.5H0A2.5,2.5,0,0,1-2.5,0,2.5,2.5,0,0,1,0-2.5H49.055a2.5,2.5,0,0,1,2.5,2.5A2.5,2.5,0,0,1,49.055,2.5Z"/><path class="h" d="M31.52,2.5H0A2.5,2.5,0,0,1-2.5,0,2.5,2.5,0,0,1,0-2.5H31.52A2.5,2.5,0,0,1,34.02,0,2.5,2.5,0,0,1,31.52,2.5Z" transform="translate(0 13.24)"/><path class="h" d="M7.825,2.5H0A2.5,2.5,0,0,1-2.5,0,2.5,2.5,0,0,1,0-2.5H7.825a2.5,2.5,0,0,1,2.5,2.5A2.5,2.5,0,0,1,7.825,2.5Z" transform="translate(41.76 13.24)"/></g></g><g transform="translate(13.783 233.301)"><path class="c" d="M607.226,234.949l36.7-35.079,5.6,27.787Z" transform="translate(-125.586 -187.165)"/><rect class="i" width="26.4" height="26.4" transform="translate(489.917 153.945) rotate(-20.667)"/><circle class="t" cx="13.94" cy="13.94" r="13.94" transform="translate(0)"/></g></g></g></svg>