<svg xmlns="http://www.w3.org/2000/svg" width="964.372" height="874.974" viewBox="0 0 964.372 874.974"><defs><style>.a{fill:#ef6f7c;}.b{fill:#a5cda5;}.c{fill:#ee7f8a;}.d{fill:#ffcd94;}.e{fill:#212121;}.f,.r{fill:#f1f1f3;}.f{mix-blend-mode:multiply;isolation:isolate;}.g{fill:#fff;}.h{fill:#e98c95;}.i{fill:#e6e4e7;}.j{fill:#6c83a8;}.k{fill:#db6e73;}.l{fill:#2a4063;}.m{fill:#ede9e6;}.n{fill:#ffd0bd;}.o{fill:#ffb59f;}.p{fill:#9bb2d8;}.q{fill:#88bd91;}.s{fill:#ffb35d;}</style></defs><g transform="translate(-239.288 106.338)"><g transform="translate(69.288 62.651)"><g transform="translate(976.282 404.981)"><path class="a" d="M739.422,291.27c-6.783,0-10.2-3.165-13.514-6.226s-6.443-5.96-12.833-5.96-9.521,2.9-12.835,5.96-6.73,6.226-13.512,6.226-10.2-3.165-13.514-6.226-6.443-5.96-12.835-5.96-9.521,2.9-12.835,5.96-6.73,6.226-13.512,6.226-10.206-3.165-13.516-6.226-6.444-5.96-12.835-5.96-9.523,2.9-12.837,5.96-6.731,6.225-13.514,6.225v-1c6.391,0,9.521-2.895,12.835-5.96s6.732-6.226,13.516-6.226,10.2,3.165,13.514,6.226,6.444,5.96,12.837,5.96,9.519-2.895,12.833-5.96,6.731-6.226,13.514-6.226,10.2,3.165,13.514,6.226,6.443,5.96,12.835,5.96,9.52-2.895,12.833-5.96,6.731-6.226,13.514-6.226,10.2,3.165,13.512,6.226,6.443,5.96,12.835,5.96Z" transform="translate(-581.332 -248.424)"/><path class="a" d="M739.422,283.52c-6.783,0-10.2-3.165-13.514-6.226s-6.443-5.96-12.833-5.96-9.521,2.9-12.835,5.96-6.73,6.226-13.512,6.226-10.2-3.165-13.514-6.226-6.443-5.96-12.835-5.96-9.521,2.9-12.835,5.96-6.73,6.226-13.512,6.226-10.206-3.165-13.516-6.226-6.444-5.96-12.835-5.96-9.523,2.9-12.837,5.96-6.731,6.225-13.514,6.225v-1c6.391,0,9.521-2.895,12.835-5.96s6.732-6.226,13.516-6.226,10.2,3.165,13.514,6.226,6.444,5.96,12.837,5.96,9.519-2.895,12.833-5.96,6.731-6.226,13.514-6.226,10.2,3.165,13.514,6.226,6.443,5.96,12.835,5.96,9.52-2.895,12.833-5.96,6.731-6.226,13.514-6.226,10.2,3.165,13.512,6.226,6.443,5.96,12.835,5.96Z" transform="translate(-581.332 -255.753)"/><path class="a" d="M739.422,275.769c-6.783,0-10.2-3.165-13.514-6.226s-6.443-5.96-12.833-5.96-9.521,2.9-12.835,5.96-6.73,6.226-13.512,6.226-10.2-3.165-13.514-6.226-6.443-5.96-12.835-5.96-9.521,2.9-12.835,5.96-6.73,6.226-13.512,6.226-10.206-3.165-13.516-6.226-6.444-5.96-12.835-5.96-9.523,2.9-12.837,5.96-6.731,6.225-13.514,6.225v-1c6.391,0,9.521-2.895,12.835-5.96s6.732-6.226,13.516-6.226,10.2,3.165,13.514,6.226,6.444,5.96,12.837,5.96,9.519-2.895,12.833-5.96,6.731-6.226,13.514-6.226,10.2,3.165,13.514,6.226,6.443,5.96,12.835,5.96,9.52-2.895,12.833-5.96,6.731-6.226,13.514-6.226,10.2,3.165,13.512,6.226,6.443,5.96,12.835,5.96Z" transform="translate(-581.332 -263.083)"/></g><g transform="translate(170 -66.632)"><path class="b" d="M227.378,143.966c-6.782,0-10.2-3.165-13.512-6.227s-6.443-5.961-12.835-5.961-9.52,2.9-12.833,5.961-6.731,6.227-13.514,6.227-10.2-3.166-13.514-6.227-6.443-5.961-12.833-5.961-9.521,2.9-12.835,5.961-6.731,6.227-13.514,6.227-10.2-3.165-13.514-6.227-6.444-5.961-12.837-5.961-9.521,2.9-12.835,5.961-6.732,6.227-13.516,6.227v-1c6.393,0,9.523-2.9,12.837-5.961s6.731-6.227,13.514-6.227,10.206,3.166,13.516,6.227,6.444,5.961,12.835,5.961,9.521-2.9,12.835-5.961,6.731-6.227,13.514-6.227,10.2,3.165,13.512,6.227,6.443,5.961,12.835,5.961,9.521-2.9,12.835-5.961,6.73-6.227,13.512-6.227,10.2,3.166,13.514,6.227,6.443,5.961,12.833,5.961Z" transform="translate(-69.288 -101.118)"/><path class="b" d="M227.378,136.214c-6.782,0-10.2-3.165-13.512-6.226s-6.443-5.96-12.835-5.96-9.52,2.895-12.833,5.96-6.731,6.226-13.514,6.226-10.2-3.165-13.514-6.226-6.443-5.96-12.833-5.96-9.521,2.9-12.835,5.96-6.731,6.226-13.514,6.226-10.2-3.165-13.514-6.226-6.444-5.96-12.837-5.96-9.521,2.895-12.835,5.96-6.732,6.226-13.516,6.226v-1c6.393,0,9.523-2.9,12.837-5.96s6.731-6.226,13.514-6.226,10.206,3.165,13.516,6.226,6.444,5.96,12.835,5.96,9.521-2.9,12.835-5.96,6.731-6.226,13.514-6.226,10.2,3.165,13.512,6.226,6.443,5.96,12.835,5.96,9.521-2.9,12.835-5.96,6.73-6.226,13.512-6.226,10.2,3.165,13.514,6.226,6.443,5.96,12.833,5.96Z" transform="translate(-69.288 -108.447)"/><path class="b" d="M227.378,128.463c-6.782,0-10.2-3.165-13.512-6.226s-6.443-5.96-12.835-5.96-9.52,2.895-12.833,5.96-6.731,6.226-13.514,6.226-10.2-3.165-13.514-6.226-6.443-5.96-12.833-5.96-9.521,2.9-12.835,5.96-6.731,6.226-13.514,6.226-10.2-3.165-13.514-6.226-6.444-5.96-12.837-5.96-9.521,2.895-12.835,5.96-6.732,6.226-13.516,6.226v-1c6.393,0,9.523-2.9,12.837-5.96s6.731-6.226,13.514-6.226,10.206,3.165,13.516,6.226,6.444,5.96,12.835,5.96,9.521-2.9,12.835-5.96,6.731-6.226,13.514-6.226,10.2,3.165,13.512,6.226,6.443,5.96,12.835,5.96,9.521-2.9,12.835-5.96,6.73-6.226,13.512-6.226,10.2,3.165,13.514,6.226,6.443,5.96,12.833,5.96Z" transform="translate(-69.288 -115.777)"/></g><path class="c" d="M-.5-.5H24.491V24.491H-.5ZM23.491.5H.5V23.491H23.491Z" transform="translate(189.515 602.098) rotate(32.637)"/><path class="d" d="M14.522-.5A15.022,15.022,0,0,1,25.144,25.144,15.022,15.022,0,1,1,3.9,3.9,14.923,14.923,0,0,1,14.522-.5Zm0,29.043A14.022,14.022,0,1,0,.5,14.522,14.038,14.038,0,0,0,14.522,28.543Z" transform="translate(1046.665 54.793)"/><path class="b" d="M288.254,61.869,310.3,87.514l-53.024,12.8Zm20.225,25.057-20.2-23.494L259.9,98.65Z" transform="translate(109.735 -62.65)"/><path class="e" d="M349.083,129.382l-.3-.4L416,77.964l.151.2,33.965,44.752,60.046-45.573.3.4-60.444,45.876L415.907,78.664Z" transform="translate(195.17 -48.569)"/></g><g transform="translate(661.639 105.202)"><path class="f" d="M843.367,323.928v9.449c0,13.465-11.562,24.357-25.875,24.357H394.224c-14.278,0-25.858-10.892-25.858-24.357V174.055H787.775c19.917,0,38.179,16.146,40.77,36.063Z" transform="translate(-368.366 -52.814)"/><g transform="translate(23.694)"><rect class="g" width="447.352" height="276.939" rx="13.821"/><g transform="translate(34.379 91.598)"><path class="d" d="M400.377,236.193h-10A81.017,81.017,0,0,1,471.3,155.267v10A71.006,71.006,0,0,0,400.377,236.193Z" transform="translate(-395.377 -160.267)"/><path class="d" transform="translate(-314.157 -119.656)"/><path class="b" d="M511.616,236.193h-10a71,71,0,0,0-70.924-70.926v-10A81.016,81.016,0,0,1,511.616,236.193Z" transform="translate(-354.766 -160.267)"/><path class="h" d="M471.3,276.508a81.017,81.017,0,0,1-80.926-80.926h10a70.925,70.925,0,1,0,141.849,0h10A81.016,81.016,0,0,1,471.3,276.508Z" transform="translate(-395.377 -119.656)"/></g><path class="f" d="M13.821,0H433.531a13.821,13.821,0,0,1,13.821,13.821V50.787a0,0,0,0,1,0,0H0a0,0,0,0,1,0,0V13.821A13.821,13.821,0,0,1,13.821,0Z" transform="translate(0 12.069)"/><path class="g" d="M13.821,0H433.531a13.821,13.821,0,0,1,13.821,13.821V50.787a0,0,0,0,1,0,0H0a0,0,0,0,1,0,0V13.821A13.821,13.821,0,0,1,13.821,0Z"/><g transform="translate(142.472 25.394)"><path class="i" d="M166.757,2.5H0A2.5,2.5,0,0,1-2.5,0,2.5,2.5,0,0,1,0-2.5H166.757a2.5,2.5,0,0,1,2.5,2.5A2.5,2.5,0,0,1,166.757,2.5Z"/><path class="i" d="M86.481,2.5H0A2.5,2.5,0,0,1-2.5,0,2.5,2.5,0,0,1,0-2.5H86.481a2.5,2.5,0,0,1,2.5,2.5A2.5,2.5,0,0,1,86.481,2.5Z" transform="translate(187.365)"/></g><path class="h" d="M408.979,134.095a8.636,8.636,0,1,1-8.636-8.639A8.636,8.636,0,0,1,408.979,134.095Z" transform="translate(-365.22 -108.7)"/><path class="d" d="M424.988,134.095a8.636,8.636,0,1,1-8.636-8.639A8.638,8.638,0,0,1,424.988,134.095Z" transform="translate(-346.81 -108.7)"/><path class="b" d="M441,134.095a8.637,8.637,0,1,1-8.638-8.639A8.638,8.638,0,0,1,441,134.095Z" transform="translate(-328.402 -108.7)"/><g transform="translate(215.949 91.598)"><path class="d" d="M498.531,293.415a80.926,80.926,0,0,1,57.224-138.148v10A70.926,70.926,0,0,0,505.6,286.344Z" transform="translate(-479.83 -160.267)"/><path class="h" d="M543.862,247.792a80.4,80.4,0,0,1-57.224-23.7l7.071-7.071a70.463,70.463,0,0,0,50.153,20.775Z" transform="translate(-467.936 -90.941)"/><path class="b" d="M515.145,317.118v-10a70.926,70.926,0,0,0,0-141.851v-10a80.926,80.926,0,0,1,0,161.851Z" transform="translate(-439.219 -160.267)"/></g><g transform="translate(396.7 103.999)"><rect class="h" width="29.771" height="29.771" rx="4.346"/><rect class="d" width="29.771" height="29.771" rx="4.346" transform="translate(0 48.639)"/><rect class="b" width="29.771" height="29.771" rx="4.346" transform="translate(0 97.277)"/></g><path class="i" d="M86.481,2.5H0A2.5,2.5,0,0,1-2.5,0,2.5,2.5,0,0,1,0-2.5H86.481a2.5,2.5,0,0,1,2.5,2.5A2.5,2.5,0,0,1,86.481,2.5Z" transform="translate(248.634 167.523)"/><path class="i" d="M51.229,2.5H0A2.5,2.5,0,0,1-2.5,0,2.5,2.5,0,0,1,0-2.5H51.229a2.5,2.5,0,0,1,2.5,2.5A2.5,2.5,0,0,1,51.229,2.5Z" transform="translate(266.26 187.449)"/><path class="i" d="M86.481,2.5H0A2.5,2.5,0,0,1-2.5,0,2.5,2.5,0,0,1,0-2.5H86.481a2.5,2.5,0,0,1,2.5,2.5A2.5,2.5,0,0,1,86.481,2.5Z" transform="translate(67.063 167.523)"/><path class="i" d="M0-2.5H20.618a2.5,2.5,0,0,1,2.5,2.5V20.618a2.5,2.5,0,0,1-2.5,2.5H0a2.5,2.5,0,0,1-2.5-2.5V0A2.5,2.5,0,0,1,0-2.5Zm18.118,5H2.5V18.118H18.118Z" transform="translate(281.565 128.16)"/><path class="i" d="M0-2.5H20.618a2.5,2.5,0,0,1,2.5,2.5V20.618a2.5,2.5,0,0,1-2.5,2.5H0a2.5,2.5,0,0,1-2.5-2.5V0A2.5,2.5,0,0,1,0-2.5Zm18.118,5H2.5V18.118H18.118Z" transform="translate(98.363 128.16)"/></g></g><g transform="translate(328.885 50.868)"><path class="f" d="M292.231,338.706l.824-3.187.022-.022ZM813.1,165.014a3.2,3.2,0,0,0-3.8.533l-21.578,20.112-82.047,76.38-1.867-3.356-36-4.4-.022-.022-49.113,33.512-.022.022-89.78,60.868-6.2,4.2-4.556-11.934-27.156-70.958-3.445-9c25.334-2.511,46.824-15.956,46.779-54.4a73.96,73.96,0,0,0-2.711-20.912H313.265c-.022,2.889-.133,5.6-.378,8.067-30.89,6.711-32.557,38.868-32.645,41.6a.308.308,0,0,0-.067.089c-.444.444-.911.911-1.333,1.4-1.733,1.911-3.422,3.933-5.111,5.934-5.267,6.311-10.311,12.956-15.045,19.912-2.556-1.4-4.089-2.178-4.089-2.178l-11.334,2.956-5.6-4.089-5.222.778.556.422L197.75,388.221l18.245,14.245c-1.533,6.934-9.134,49,28.645,65-2.356,4.422-4.578,8.978-6.667,13.6-2.022,4.467-3.911,9.022-5.711,13.645a4.239,4.239,0,0,0-.222.622,188.182,188.182,0,0,0-6.422,18.178c-.067.267-.178.533-.244.8-30.556,96.781-20.489,212.029-20.489,212.029H217.6c.178,6.534.378,12.778.556,17.6a24.432,24.432,0,0,0,4.6.422H422.134l-.756-18.023h8.289l12.089-175.05a416.486,416.486,0,0,0,4.178-42.89,356.605,356.605,0,0,0-.244-39.757q-.5-7.733-1.289-15a284.15,284.15,0,0,0-16.623-70.935c-1.845-4.778-3.733-9.2-5.556-13.245l.378-.844a72.091,72.091,0,0,0,12.623-3.378c1.778,4.333,3.622,8.578,5.6,12.823a255.682,255.682,0,0,0,18.067,32.445,203.06,203.06,0,0,0,22.734,28.645,35.928,35.928,0,0,0,46.446,4.533,39.214,39.214,0,0,0,15.267-10.956c21.2-24.69,48.135-61.78,76.98-115.537a156.3,156.3,0,0,0,20.245,5.422l-7,6.556a6.444,6.444,0,1,0,8.933,9.289l13.912-13.756a131.9,131.9,0,0,0,15.311.178c.978-.044,1.933-.111,2.911-.178a9.523,9.523,0,0,0,4.4,3.711l18.289,7.356a9.164,9.164,0,0,0,9.245-1.489,9.289,9.289,0,0,0,2.756-3.956,8.378,8.378,0,0,0,.355-4.289,10.324,10.324,0,0,0-.244-1.133,8.679,8.679,0,0,0-2.245-3.845l1.289.067a9.113,9.113,0,0,0,9.667-8.934,8.233,8.233,0,0,0-.978-4.178c-.2-.333-.4-.689-.6-1a8.813,8.813,0,0,0-2.156-2.2,3.218,3.218,0,0,0,.489-.2,8.855,8.855,0,0,0,6-1.756,8.754,8.754,0,0,0,2.4-2.622,9.055,9.055,0,0,0-1.889-11.6l.133-.133-.022-.022c-.178-.156-.378-.289-.578-.444l-1.333-.978a7.45,7.45,0,0,0,.8-.467,8.9,8.9,0,0,0,3-3.889,9.1,9.1,0,0,0-4.334-11.534l-4.711-2.356,83.914-83.158,15.6-15.467A3.253,3.253,0,0,0,813.1,165.014Z" transform="translate(-197.75 -26.597)"/><g transform="translate(27.878)"><path class="j" d="M443.144,414.805a417.8,417.8,0,0,1-4.153,42.855L267.805,428.381l-45.079-7.687c.064-.262.164-.524.229-.787a191.434,191.434,0,0,1,6.411-18.187,4.592,4.592,0,0,1,.229-.589,302.2,302.2,0,0,1,23.947-46.746c20.543-32.779,53.093-70.6,102.521-95.947a249.473,249.473,0,0,1,42.855-17.14s6.607,7.522,14.72,22.8c1.767,3.336,3.631,7.031,5.5,11.12,1.929,4.253,3.925,8.9,5.856,13.969,7.034,18.287,13.509,41.939,16.618,70.889A347.189,347.189,0,0,1,443.144,414.805Z" transform="translate(-195.1 67.131)"/><path class="e" d="M379.019,124.452c16.054,94.452,52.588,88.3,52.637,138.706.089,93.525-127.273,39.1-127.273,39.1l7.049-183.7Z" transform="translate(-95.291 -82.897)"/><path class="j" d="M436.518,408.48a36.655,36.655,0,0,1-3.067,4.656q-.823,1.067-1.7,2.027a35.937,35.937,0,0,1-52.626.913c-16.818-17.529-30.2-38.439-40.792-61.044-19.576-41.8-29.545-89.4-33.854-132.311a35.574,35.574,0,0,1,29.143-38.548,38.16,38.16,0,0,1,6.245-.549,35.49,35.49,0,0,1,32.083,20.307l9.731,25.363v.036l6.756,17.658,27.136,70.922L438.656,378.2A36.008,36.008,0,0,1,436.518,408.48Z" transform="translate(-95.389 -3.363)"/><path class="k" d="M431.656,393.658a35.937,35.937,0,0,1-52.626.913c-16.818-17.529-30.2-38.439-40.792-61.044-19.576-41.8-29.545-89.4-33.854-132.311,0,0,43.33,86.716,65.1,130.924a175.438,175.438,0,0,0,9.367,16.725,39.517,39.517,0,0,0,8,32.668,39.057,39.057,0,0,0,30.639,14.7A40.459,40.459,0,0,0,431.656,393.658Z" transform="translate(-95.291 18.141)"/><path class="l" d="M366.646,204.243l4.891,36.228c22.278,45.535,5.365,81.487-29.932,83.645l-3.369,9.422c-19.563-41.808-29.539-89.4-33.857-132.324Z" transform="translate(-95.295 18.137)"/><path class="e" d="M285.7,117.743c51.221-35.426,139.186-6.1,111.694,57.326Z" transform="translate(-118.129 -102.509)"/><g transform="translate(76.21 166.847)"><path class="j" d="M443.543,244.192,406.9,323.259l-6.216,13.378-38.208,82.3c-13.576-8.471-27.283-20.478-40.5-34.937-4.385-4.84-8.767-9.945-13.085-15.309a397.675,397.675,0,0,1-39.486-60.453q-4.61-8.537-8.734-17.241c-10.927-23-20.872-45.47-13.609-64.182.262-.653.558-1.309.851-1.962a35.027,35.027,0,0,1,2.847-5.038c8.471-12.563,26.563-23.03,60.028-30.259,1.144-.229,2.353-.491,3.531-.687l56.693-9.52,10.565-1.767,32.288,6.936a27.91,27.91,0,0,1,4.647,1.309,43.784,43.784,0,0,1,7.26,3.171,42.138,42.138,0,0,1,16.783,17.24,33.618,33.618,0,0,1,1.962,4.285A42.393,42.393,0,0,1,443.543,244.192Z" transform="translate(-244.588 -177.588)"/></g><path class="l" d="M354.39,199.965l-.327.327-37.339,45.857,19.247-59.564,1.636-3.86A42.138,42.138,0,0,1,354.39,199.965Z" transform="translate(-80.207 -4.462)"/><path class="j" d="M366.376,214.8c29.183,65.3-12.671,108.774-69.586,76.476Z" transform="translate(-104.572 34.743)"/><path class="j" d="M331.592,221.719a28.81,28.81,0,0,1-.491,5.267,30.717,30.717,0,0,1-1.6,5.5l-28.33,57.084-46.321,93.329-33.432,5.627C209.673,323.913,236.038,256.46,276.08,208.47c1.7-2,3.369-3.991,5.1-5.92.427-.491.885-.949,1.342-1.407a28.846,28.846,0,0,1,49.068,20.576Z" transform="translate(-200.136 7.937)"/><path class="l" d="M336.409,234.388c-12.889,5.138-25.321,3.6-36.9-.293-21.687-7.36-40.2-23.161-52.275-18.843a10.722,10.722,0,0,0-2.78,1.44s0-.393.033-1.113c1.7-2,3.369-3.991,5.1-5.92.427-.491.884-.949,1.342-1.407,5.4-8.016,14.721-15.147,29.408-21.2C297.252,205.014,317.862,221.37,336.409,234.388Z" transform="translate(-168.543 0.828)"/><path class="g" d="M416.906,189.016a61.2,61.2,0,0,1-3.778,19.483c-8.309,23.721-28.487,49.21-44.19,68.931a533.77,533.77,0,0,1-50.215-31.461,54.11,54.11,0,0,0,12.307-6.976c17.949-13.42,22.332-34.712,22.461-59.637l-56.68,9.514c-1.187.2-2.393.458-3.542.693a184.7,184.7,0,0,0-30.605,9.058c-1.278-1.333-2.518-2.684-3.742-4.018,1.316-.238,25.983-5.751,27.281-5.9l70.629-11.12,10.007,1.187Z" transform="translate(-150.859 -10.744)"/><path class="m" d="M357.873,189.013c.147,6.574-.931,11.211-3.816,19.483l-39.735-14.772-7.074-16.136,50.586,11.425Z" transform="translate(-91.788 -10.741)"/><path class="m" d="M351.446,178.383c-.131,24.927-4.516,46.224-22.474,59.635a53.468,53.468,0,0,1-12.3,6.967c-18.547-13.018-39.157-29.374-56.07-47.335a184.765,184.765,0,0,1,30.621-9.06c1.144-.229,2.353-.491,3.531-.687Z" transform="translate(-148.806 -9.769)"/><path class="n" d="M280.838,143.539l8.643,92.691L337.1,284.621l22.4-116.008Z" transform="translate(-124.07 -52.359)"/><path class="o" d="M327.806,210.813s-29.75-12.785-31.581-47.219l37.241,19.63Z" transform="translate(-105.263 -27.846)"/><path class="n" d="M284.449,145.517l6.642,26.294,3.042,11.985,8.145,32.174a51.7,51.7,0,0,0,34.563,36.614l26.567,8.38a37.7,37.7,0,0,0,48.853-32.774c1.571-17.649,1.56-38.239-5.156-60.115a82.061,82.061,0,0,0-52.439-53.193l-.1-.029-4.256-1.273-.458-.116c-2.124-.553-4.313-1.009-6.5-1.369a78.648,78.648,0,0,0-15.969-1.156l-17.185.5A27.382,27.382,0,0,0,284.449,145.517Z" transform="translate(-120.692 -92.244)"/><path class="o" d="M349.257,114.755c5.6,37.506-47.133,74.94-47.133,74.94l-.1-37.868Z" transform="translate(-98.18 -87.541)"/><path class="o" d="M384.767,261.357a37.428,37.428,0,0,1-21.365-.4l-26.55-8.382a51.7,51.7,0,0,1-34.568-36.612l-8.142-32.172-3.049-12L284.447,145.5a27.391,27.391,0,0,1,25.765-34.072l17.181-.493c3.944-.129,11.7.529,11.7.529l1.822,48.893-2.145,60.471c.029,13.436,3.767,20.156,12.076,26.639a54.446,54.446,0,0,0,13.683,8.291C371.852,259.081,380.89,262.719,384.767,261.357Z" transform="translate(-120.694 -92.234)"/><path class="n" d="M328.011,152.127c-73.324-53.735-81.467,42.988-2.66,36.87Z" transform="translate(-137.855 -61.804)"/><path class="e" d="M307.729,195.93c7.687-13.574,8.494-33.179,28.93-55.826,0,0,14.887-14.085,34.494-14.958,0,0-42.119-31.414-78.322-12.427S307.729,195.93,307.729,195.93Z" transform="translate(-125.26 -97.484)"/><path class="e" d="M376.349,137.235c-18.049,64.709,19.183,144.582-24.7,177.305s-84.674-24.492-104.261-10.718c0,0,.4-34.785,32.65-41.786,4.516-44.408-33.705-164.516,52.479-152.187Z" transform="translate(-164.951 -94.616)"/><path class="e" d="M358.188,109.686c-.591,35.566-51.579,72.707-51.579,72.707l-9.12-59.977Z" transform="translate(-103.719 -93.737)"/><g transform="translate(214.459 60.059)"><path class="e" d="M343.273,151.289c.607,6.3-1.231,11.631-4.1,11.909s-5.694-4.607-6.3-10.909,1.231-11.632,4.1-11.909S342.667,144.987,343.273,151.289Z" transform="translate(-275.074 -116.292)"/><path class="n" d="M343.169,141.066c5.765,13.869,15.289,16.727,21.9,16.823a8.231,8.231,0,0,1,8.08,7.58h0a14.179,14.179,0,0,1-7.358,13.589l-17.416,9.476a17.464,17.464,0,0,1-22.552-12.618l-7.885-34.005Z" transform="translate(-293.177 -115.44)"/><g transform="translate(48.965 25.199)"><path class="o" d="M341.5,186.533l-1.06-1.953,11.514-6.262a13.074,13.074,0,0,0,6.78-12.525,7.094,7.094,0,0,0-6.987-6.558c-7.176-.1-16.978-3.227-22.914-17.507l2.051-.853c5.473,13.167,14.385,16.043,20.9,16.138a9.309,9.309,0,0,1,9.169,8.6,15.3,15.3,0,0,1-7.936,14.656Z" transform="translate(-328.832 -140.874)"/></g><path class="e" d="M326.07,153.851c.607,6.3-1.231,11.634-4.1,11.909s-5.693-4.607-6.3-10.907,1.229-11.631,4.1-11.909S325.461,147.551,326.07,153.851Z" transform="translate(-296.103 -113.158)"/><path class="e" d="M320.549,142.261c-14.323,5.976-18.258-1.378-7.985-7.6C323.616,127.963,338.37,134.83,320.549,142.261Z" transform="translate(-306.798 -126.597)"/><path class="e" d="M335.489,138.489c-11.176-1.813-8.074-8.845,1.273-8.954C346.816,129.418,349.39,140.747,335.489,138.489Z" transform="translate(-280.464 -129.535)"/><path class="g" d="M345.841,164.613l-25.779-1.989s2.9,14.892,10.38,16.5C338.576,180.878,345.841,164.613,345.841,164.613Z" transform="translate(-290.586 -89.09)"/></g><path class="p" d="M423.933,457.8H220.1c-.518-13.969-1.324-40.017-1.078-52.77l202.435-5.973Z" transform="translate(-199.677 259.962)"/><path class="j" d="M451.141,395.46l-12.1,174.947H214.365s-10.043-115.181,20.512-211.913c.064-.262.164-.524.229-.787,1.962-6.149,4.089-12.234,6.411-18.187a4.594,4.594,0,0,1,.229-.589,235.636,235.636,0,0,1,23.947-46.746l61.7,34.348Z" transform="translate(-207.25 129.331)"/><path class="l" d="M431.285,268.268c-11.078,5.611-45.21,20.578-45.21,20.578s2.191,52.733-34.283,77.953c-8.047,5.562-16.289,10.238-24.4,14.983-17.207,10.043-33.923,20.314-47.433,39.648-8.931,12.792-16.487,29.539-21.854,52.864-12.2,52.928-7.2,117.7-3.2,151.362H214.365s-10.043-115.181,20.512-211.913c.064-.262.164-.524.229-.787a191.441,191.441,0,0,1,6.411-18.187,4.594,4.594,0,0,1,.229-.589,235.636,235.636,0,0,1,23.947-46.746c20.543-32.779,53.093-70.6,102.521-95.947,0,0,28.034,5.691,57.575,5.66,16.323-.033,30.752-4.7,43.51-10.163C469.3,246.985,458.781,263.721,431.285,268.268Z" transform="translate(-207.25 74.082)"/><path class="o" d="M279.7,343.345c-78.522-2.256-60.048-72.062-60.048-72.062l62.98,33.643Z" transform="translate(-201.174 103.781)"/><g transform="translate(0 233.014)"><path class="g" d="M260.984,235.785c15.68-20.985,83.042-2.682,83.042-2.682l7.271,8.725Z" transform="translate(-148.337 -184.937)"/><path class="g" d="M297.484,258.188c5.2-21.023-52.528-50.317-52.528-50.317l-16.543,4.34Z" transform="translate(-188.149 -206.74)"/><g transform="translate(34.681)"><path class="q" d="M268.072,230.083l79.087,3.951,3.519,3.384-85.7,2.207Z" transform="translate(-178.142 -179.59)"/><path class="q" d="M279.517,232.524l-21.606-4.438-2.3,4.815,23.583,4.46Z" transform="translate(-189.587 -182.031)"/><path class="q" d="M231.112,207.362l63.113,46.055L292.96,258.3,225.9,208.145Z" transform="translate(-225.9 -207.362)"/></g><path class="b" d="M285.634,232.26l82.93,2.5L334.879,365.737,250.34,360.08Z" transform="translate(-161.347 -176.93)"/><path class="q" d="M240.919,361.261l20.945,1.237L283.5,284.137l2.609-9.444,2.234-8.15,2.746-9.949,6.059-21.92L274.6,230.281l-5.376,20.936-2.946,11.4-1.586,6.155L261.633,280.7Z" transform="translate(-172.863 -179.348)"/><path class="g" d="M252.332,251.1l22.063,3.927,2.746-9.949L255.277,239.7Z" transform="translate(-158.913 -167.833)"/><path class="g" d="M250.24,259.527l21.869,3.44,2.609-9.444L253.3,247.6Z" transform="translate(-161.47 -158.178)"/><path class="b" d="M245.588,207.8l66.444,49.964L278.348,388.744l-68.053-53.122Z" transform="translate(-210.295 -206.826)"/><path class="q" d="M235.344,272.78c12.389-7.013,11.736,9.138,29.585-1.936,15.452-9.587,30.005-13.134,36.994-10.609,37.446,13.536,29.094,70.787,29.094,70.787l-91.978-5.4Z" transform="translate(-179.677 -143.699)"/><path class="g" d="M324.795,287.776l-67.646-5.923-1.4,6.065,67.646,5.922Z" transform="translate(-154.739 -116.312)"/><path class="g" d="M276.37,256.314l-47-30.88-4.4,17.2,47.019,30.7Z" transform="translate(-192.355 -185.273)"/><g transform="translate(53.3 117.263)"><path class="o" d="M236.97,323.494l-2.691-30.808,2.34-21.707a5.777,5.777,0,0,1,7.476-4.891h0a5.775,5.775,0,0,1,4.042,5.385l.347,16.1,3.718,13.572Z" transform="translate(-234.279 -253.174)"/><path class="o" d="M235.49,304.947l9.391-23.954,68.58,22.292c-12.965,14.369-55.439,28.192-55.439,28.192Z" transform="translate(-232.799 -234.627)"/><g transform="translate(12.085)"><path class="o" d="M239.717,306.5l15.447,13.076.622-1.016,10.463-17.178.018-.058,7.338-16.989,19.285-16.663a4.292,4.292,0,0,0,1.284-4.553h0a4.294,4.294,0,0,0-6.4-2.313l-24.216,15.458L244.89,299.951Z" transform="translate(-239.717 -260.129)"/></g><g transform="translate(25.279 6.049)"><path class="o" d="M245.654,311.319l2.876,3.913L258.845,326.8l4.271-5.249,9.145-11.289.507-.622,1.789-2.2,12-17.763,13.32-19.712a4.428,4.428,0,0,0-.029-5l-.144-.211a4.429,4.429,0,0,0-6.793-.589l-17.774,18.023L261.121,296.4l-1.656,1.6-7.827,7.565Z" transform="translate(-245.654 -262.851)"/></g><path class="o" d="M272.8,325.61l21.205-10.456,9.389-15.409a4.962,4.962,0,0,0-8.207-5.556l-8.225,10.956-9.982,5.651,11.623-12.556,10.86-20.45a4.447,4.447,0,0,0-.529-4.925,4.421,4.421,0,0,0-6.76-.024L279.627,287.6,251.4,305.707Z" transform="translate(-213.347 -246.496)"/><path class="n" d="M276.865,272.841,264.309,287.59l8.987,10.643,10.851-20.447a4.434,4.434,0,0,0-.522-4.925h0A4.428,4.428,0,0,0,276.865,272.841Z" transform="translate(-197.574 -246.495)"/><path class="n" d="M283.489,264.758a4.429,4.429,0,0,0-6.794-.589l-17.774,18.023,11.42,7.489,13.32-19.712a4.428,4.428,0,0,0-.029-5Z" transform="translate(-204.158 -256.802)"/><path class="n" d="M250.65,276.263l10.047,8.071,19.287-16.663a4.3,4.3,0,0,0,1.282-4.553h0a4.294,4.294,0,0,0-6.4-2.313Z" transform="translate(-214.269 -260.129)"/><path class="n" d="M267.612,293.633l7.042,10.009,9.389-15.409a4.962,4.962,0,0,0-8.207-5.556Z" transform="translate(-193.536 -234.984)"/></g></g><g transform="translate(275.88 138.336)"><g transform="translate(136.428)"><path class="n" d="M492.186,270.033c-1.073.229-2.171.482-3.313.738-8.456,1.918-18.945,4.309-31.632,4.891-16.569.778-36.892-1.411-61.413-11.447L404.2,238.57l49.11-33.49Z" transform="translate(-395.828 -115.473)"/><path class="e" d="M487.749,214.322l-71.407,70.5a6.436,6.436,0,0,1-9.085-.04h0a6.436,6.436,0,0,1,.162-9.236l71.373-66.878Z" transform="translate(-384.148 -111.084)"/><path class="o" d="M456.232,240.33c-8.456,1.918-18.945,4.309-31.632,4.891a9.355,9.355,0,0,1-1.493-9.085,9.452,9.452,0,0,1,2.287-3.48,4.9,4.9,0,0,1,.524-.5,2.2,2.2,0,0,1,.533-.358,9.236,9.236,0,0,1,9.3-1l18.014,7.916A9.791,9.791,0,0,1,456.232,240.33Z" transform="translate(-363.187 -85.033)"/><path class="o" d="M462.3,240.9a9.152,9.152,0,0,1-8.3,4.3l-19.674-1.227a9.441,9.441,0,0,1-8.823-9.687,9.577,9.577,0,0,1,1.082-4.04,4.909,4.909,0,0,1,.351-.633,3.384,3.384,0,0,1,.356-.5,9.269,9.269,0,0,1,8.534-3.882l19.6,1.853a9.114,9.114,0,0,1,6.656,4.018c.211.311.4.656.591,1a8.245,8.245,0,0,1,.991,4.169A9.1,9.1,0,0,1,462.3,240.9Z" transform="translate(-359.558 -90.904)"/><path class="n" d="M435.436,216.237a9.206,9.206,0,0,0-2.4,2.616,8.9,8.9,0,0,0-.46.856,9.419,9.419,0,0,0,3.265,11.925l6.789,4.522,9.6,6.367a9.124,9.124,0,0,0,10.42-.256,9.245,9.245,0,0,0,2.389-2.638,9.069,9.069,0,0,0-1.907-11.609l-.016-.022c-.18-.156-.38-.3-.582-.438l-16.049-11.429a4.841,4.841,0,0,0-.489-.313A9.369,9.369,0,0,0,435.436,216.237Z" transform="translate(-352.076 -104.094)"/><path class="n" d="M457.513,254.275a9.153,9.153,0,0,1-9.229,1.473L429.992,248.4a9.442,9.442,0,0,1-5.331-11.967,9.582,9.582,0,0,1,2.3-3.5,4.832,4.832,0,0,1,.531-.491,3.155,3.155,0,0,1,.493-.36,9.275,9.275,0,0,1,9.323-1L455.328,239a9.106,9.106,0,0,1,5.053,5.909c.1.36.176.747.247,1.131a8.23,8.23,0,0,1-.367,4.269A9.136,9.136,0,0,1,457.513,254.275Z" transform="translate(-361.283 -84.695)"/><path class="o" d="M458.638,245.371a8.837,8.837,0,0,1-5.256.649l-19.389-3.365c-4.849-.829-9.82-5.349-8.145-11.754,2.613-1.922,6.547-.789,9.716.64l18.021,7.92A9.106,9.106,0,0,1,458.638,245.371Z" transform="translate(-359.54 -85.158)"/><path class="n" d="M463.967,241.857a9.152,9.152,0,0,1-8.3,4.3l-19.674-1.229a9.441,9.441,0,0,1-8.822-9.685,9.567,9.567,0,0,1,1.082-4.04,5.1,5.1,0,0,1,.351-.636,3.364,3.364,0,0,1,.356-.5,9.271,9.271,0,0,1,8.534-3.885l19.6,1.856a9.1,9.1,0,0,1,6.656,4.018c.211.311.4.653.591,1a8.234,8.234,0,0,1,.991,4.169A9.1,9.1,0,0,1,463.967,241.857Z" transform="translate(-357.522 -89.735)"/><path class="o" d="M463.249,232.112a8.843,8.843,0,0,1-4.785,2.269L439,237.281c-4.862.74-11-1.989-11.425-8.6,1.876-2.647,5.965-2.807,9.423-2.447l19.6,1.856A9.1,9.1,0,0,1,463.249,232.112Z" transform="translate(-357.024 -89.786)"/><path class="o" d="M457.34,232.13a9.053,9.053,0,0,1-5.991,4.656l-13.276,2.8a9.344,9.344,0,0,1-10.678-12.909,3.3,3.3,0,0,1,.249-.558,9.346,9.346,0,0,1,6.507-4.9l13.4-2.22a9.061,9.061,0,0,1,6.44,1.162,8.912,8.912,0,0,1,4.053,5.333A9.033,9.033,0,0,1,457.34,232.13Z" transform="translate(-358.237 -98.664)"/><path class="n" d="M429.486,226.671a5.121,5.121,0,0,0-.3.544c-.127.222-.216.449-.32.656l.016.02a9.224,9.224,0,0,0-.664,5.445,9.37,9.37,0,0,0,10.636,7.591l19.478-2.876a9.141,9.141,0,0,0,2.656-.842A9.125,9.125,0,0,0,465.9,227.3a9.5,9.5,0,0,0-1.553-3.578,9.214,9.214,0,0,0-2.1-2.049,8.994,8.994,0,0,0-6.311-1.662l-18.409,2.149-1.184.138A9.371,9.371,0,0,0,429.486,226.671Z" transform="translate(-356.422 -97.292)"/><path class="o" d="M437.165,228.126l-1.185.138a9.37,9.37,0,0,0-6.86,4.371,5.3,5.3,0,0,0-.3.544c-.124.222-.213.449-.318.656l.016.02a9.362,9.362,0,0,0,10.665,3.809l7.425-2.347,16.1-5.1a6.377,6.377,0,0,0,1.28-.531,9.1,9.1,0,0,0,3.129-2.507l-.016-.022c-.18-.156-.382-.3-.582-.438l-16.049-11.429a4.853,4.853,0,0,0-.489-.313l-13.42,3.891A9.3,9.3,0,0,0,437.165,228.126Z" transform="translate(-355.896 -103.374)"/><path class="n" d="M434.507,210.113a9.407,9.407,0,0,0,1.66,16.1l5.774,2.673,12.12,5.56a8.965,8.965,0,0,0,5.594.649,8.559,8.559,0,0,0,3.618-1.584,9.106,9.106,0,0,0-1.32-15.42l-5.709-2.849L450.2,212.2l-5.865-2.927A9.344,9.344,0,0,0,434.507,210.113Z" transform="translate(-353.202 -111.593)"/><path class="o" d="M457.258,224.578a9.053,9.053,0,0,1-5.209,5.518l-12.689,4.8a9.344,9.344,0,0,1-12.529-11.12,3.182,3.182,0,0,1,.16-.591,9.347,9.347,0,0,1,5.68-5.842l12.9-4.247a9.057,9.057,0,0,1,6.542.164,8.9,8.9,0,0,1,4.822,4.649A9.02,9.02,0,0,1,457.258,224.578Z" transform="translate(-358.342 -106.324)"/><path class="n" d="M464.826,225.629a9.045,9.045,0,0,1-5.62,5.1l-18.827,5.834A9.345,9.345,0,0,1,428.751,224.5a3.4,3.4,0,0,1,.2-.576,9.346,9.346,0,0,1,6.118-5.382l19-5.262a9.045,9.045,0,0,1,6.509.671,8.9,8.9,0,0,1,4.447,5.011A9.01,9.01,0,0,1,464.826,225.629Z" transform="translate(-356.258 -105.846)"/><g transform="translate(8.367)"><g transform="translate(11.36 98.8)"><path class="o" d="M404.7,237.44l41.7-28.223,30.494,3.825-9.509,15.807-12.314,2.113S439.113,268.939,404.7,237.44Z" transform="translate(-404.705 -209.217)"/><path class="o" d="M442.423,210.938l8.625,15.6a7.09,7.09,0,0,1-2.678,9.583h0a7.09,7.09,0,0,1-8.974-1.609l-6.482-7.769Z" transform="translate(-370.225 -207.113)"/></g><path class="o" d="M445.4,210.029,434.622,222.22l2.527,4.5,3.333,5.891a7.386,7.386,0,0,0,.567.9,8.329,8.329,0,0,0,9.509,2.9,8.1,8.1,0,0,0,4.3-3.478,8.292,8.292,0,0,0,.851-7.06l-4.262-12.794Z" transform="translate(-356.777 -109.424)"/><path class="e" d="M435.741,268.334l110.2-102.643a3.261,3.261,0,0,1,3.822-.547h0a3.262,3.262,0,0,1,.773,5.182l-108.99,108Z" transform="translate(-355.41 -164.758)"/><path class="n" d="M399.593,238.57l49.113-33.485,36.01,4.389-11.158,18.7-14.527,2.547S440.339,275.612,399.593,238.57Z" transform="translate(-399.593 -115.467)"/><path class="n" d="M444.034,207.06l10.247,18.381a8.373,8.373,0,0,1-3.122,11.325h0a8.371,8.371,0,0,1-10.6-1.862l-7.682-9.145Z" transform="translate(-358.911 -113.053)"/></g></g><path class="n" d="M485.432,241c-30.528,58.388-59.188,98.05-81.465,124a39.076,39.076,0,0,1-27.314,13.732,40.46,40.46,0,0,1-14.3-1.664,39.059,39.059,0,0,1-25.03-22.985,39.5,39.5,0,0,1,14.465-47.515L389.5,280.981l89.734-60.826Z" transform="translate(-334.437 -97.047)"/><path class="o" d="M403.968,309.808a39.077,39.077,0,0,1-27.314,13.732,40.461,40.461,0,0,1-14.3-1.665,39.059,39.059,0,0,1-25.03-22.985,39.512,39.512,0,0,1,1.862-33.581c8.3,29.992,23.992,53.668,43.979,53.224C389.672,318.4,396.643,315.69,403.968,309.808Z" transform="translate(-334.437 -41.856)"/></g><path class="p" d="M223.689,447.314l14.589-44.7,21.029,44.7Z" transform="translate(-193.922 264.303)"/></g></g><g transform="translate(675.092 440.123)"><rect class="f" width="331.32" height="219.94" rx="13.821" transform="translate(0 22.316)"/><g transform="translate(25.747)"><rect class="g" width="331.32" height="219.94" rx="13.821"/><path class="f" d="M13.821,0H317.5A13.821,13.821,0,0,1,331.32,13.821V51.433a0,0,0,0,1,0,0H0a0,0,0,0,1,0,0V13.821A13.821,13.821,0,0,1,13.821,0Z" transform="translate(0 12.222)"/><path class="g" d="M13.821,0H317.5A13.821,13.821,0,0,1,331.32,13.821V51.433a0,0,0,0,1,0,0H0a0,0,0,0,1,0,0V13.821A13.821,13.821,0,0,1,13.821,0Z"/><g transform="translate(144.284 25.716)"><path class="i" d="M44.446,2.5H0A2.5,2.5,0,0,1-2.5,0,2.5,2.5,0,0,1,0-2.5H44.446a2.5,2.5,0,0,1,2.5,2.5A2.5,2.5,0,0,1,44.446,2.5Z"/><path class="i" d="M90.291,2.5H0A2.5,2.5,0,0,1-2.5,0,2.5,2.5,0,0,1,0-2.5H90.291a2.5,2.5,0,0,1,2.5,2.5A2.5,2.5,0,0,1,90.291,2.5Z" transform="translate(65.316)"/></g><path class="h" d="M432.041,274.677a8.746,8.746,0,1,1-8.746-8.746A8.745,8.745,0,0,1,432.041,274.677Z" transform="translate(-387.726 -248.961)"/><path class="d" d="M448.052,274.677a8.747,8.747,0,1,1-8.746-8.746A8.746,8.746,0,0,1,448.052,274.677Z" transform="translate(-368.879 -248.961)"/><path class="b" d="M464.061,274.677a8.747,8.747,0,1,1-8.748-8.746A8.747,8.747,0,0,1,464.061,274.677Z" transform="translate(-350.032 -248.961)"/></g><g transform="translate(68.864 89.867)"><path class="i" d="M178.736,2.5H0A2.5,2.5,0,0,1-2.5,0,2.5,2.5,0,0,1,0-2.5H178.736a2.5,2.5,0,0,1,2.5,2.5A2.5,2.5,0,0,1,178.736,2.5Z" transform="translate(0 92.292)"/><path class="b" d="M5,78.108H-5V0H5Z" transform="translate(17.879)"/><path class="h" d="M5,68.383H-5V0H5Z" transform="translate(53.418 9.724)"/><path class="d" d="M5,41.841H-5V0H5Z" transform="translate(88.956 36.267)"/><path class="b" d="M5,58H-5V0H5Z" transform="translate(124.494 20.103)"/><path class="h" d="M5,39.054H-5V0H5Z" transform="translate(160.032 39.054)"/></g><g transform="translate(267.041 94.041)"><path class="i" d="M66.815,2.5H0A2.5,2.5,0,0,1-2.5,0,2.5,2.5,0,0,1,0-2.5H66.815a2.5,2.5,0,0,1,2.5,2.5A2.5,2.5,0,0,1,66.815,2.5Z"/><path class="i" d="M66.815,2.5H0A2.5,2.5,0,0,1-2.5,0,2.5,2.5,0,0,1,0-2.5H66.815a2.5,2.5,0,0,1,2.5,2.5A2.5,2.5,0,0,1,66.815,2.5Z" transform="translate(0 24.645)"/><path class="i" d="M66.815,2.5H0A2.5,2.5,0,0,1-2.5,0,2.5,2.5,0,0,1,0-2.5H66.815a2.5,2.5,0,0,1,2.5,2.5A2.5,2.5,0,0,1,66.815,2.5Z" transform="translate(0 49.289)"/><path class="i" d="M33.407,2.5H0A2.5,2.5,0,0,1-2.5,0,2.5,2.5,0,0,1,0-2.5H33.407a2.5,2.5,0,0,1,2.5,2.5A2.5,2.5,0,0,1,33.407,2.5Z" transform="translate(0 73.933)"/></g></g><g transform="translate(1003.52 -106.338)"><path class="f" d="M258.447,174.055V432.3a16.49,16.49,0,0,1-16.49,16.49H180.4V209.321a35.266,35.266,0,0,1,35.266-35.266Z" transform="translate(-100.592 -134.373)"/><rect class="g" width="142.071" height="244.095" rx="10.336" transform="translate(0.001 49.278)"/><path class="r" d="M10.336-.5h121.4a10.836,10.836,0,0,1,10.836,10.836V233.758a10.836,10.836,0,0,1-10.836,10.836H10.336A10.836,10.836,0,0,1-.5,233.758V10.336A10.836,10.836,0,0,1,10.336-.5Zm121.4,244.095a9.847,9.847,0,0,0,9.836-9.836V10.336A9.847,9.847,0,0,0,131.735.5H10.336A9.847,9.847,0,0,0,.5,10.336V233.758a9.847,9.847,0,0,0,9.836,9.836Z" transform="translate(0.001 49.278)"/><path class="g" d="M156.839,188.575H263.994a17.457,17.457,0,0,0,17.457-17.457h0a17.457,17.457,0,0,0-17.457-17.459H156.839a17.459,17.459,0,0,0-17.459,17.459h0A17.459,17.459,0,0,0,156.839,188.575Z" transform="translate(-139.38 -153.66)"/><path class="h" d="M162.154,166.432a7.816,7.816,0,1,1-7.816-7.816A7.815,7.815,0,0,1,162.154,166.432Z" transform="translate(-132.626 -148.973)"/><path class="d" d="M178.163,166.432a7.816,7.816,0,1,1-7.816-7.816A7.816,7.816,0,0,1,178.163,166.432Z" transform="translate(-117.486 -148.973)"/><path class="b" d="M194.173,166.432a7.817,7.817,0,1,1-7.818-7.816A7.816,7.816,0,0,1,194.173,166.432Z" transform="translate(-102.347 -148.973)"/><g transform="translate(28.621 174.229)"><path class="i" d="M84.83,2.5H0A2.5,2.5,0,0,1-2.5,0,2.5,2.5,0,0,1,0-2.5H84.83A2.5,2.5,0,0,1,87.33,0,2.5,2.5,0,0,1,84.83,2.5Z"/><path class="i" d="M84.83,2.5H0A2.5,2.5,0,0,1-2.5,0,2.5,2.5,0,0,1,0-2.5H84.83A2.5,2.5,0,0,1,87.33,0,2.5,2.5,0,0,1,84.83,2.5Z" transform="translate(0 24.771)"/><path class="i" d="M84.83,2.5H0A2.5,2.5,0,0,1-2.5,0,2.5,2.5,0,0,1,0-2.5H84.83A2.5,2.5,0,0,1,87.33,0,2.5,2.5,0,0,1,84.83,2.5Z" transform="translate(0 49.542)"/><path class="i" d="M47.571,2.5H0A2.5,2.5,0,0,1-2.5,0,2.5,2.5,0,0,1,0-2.5H47.571a2.5,2.5,0,0,1,2.5,2.5A2.5,2.5,0,0,1,47.571,2.5Z" transform="translate(0 74.313)"/></g><g transform="translate(15.286 72.143)"><path class="b" d="M228.422,266.489a11.289,11.289,0,0,1-4.978-1.177,16.824,16.824,0,0,1-5.327-4.3c-3.621-4.238-6.621-10.8-8.916-19.514-4.208-15.97-9.346-28.122-15.27-36.119-5.233-7.063-10.974-10.585-16.6-10.185-5.831.415-11.322,4.888-15.882,12.935-4.719,8.33-8.039,19.844-9.6,33.3l-.993-.115c1.578-13.586,4.94-25.231,9.725-33.676a33.6,33.6,0,0,1,7.712-9.6,15.981,15.981,0,0,1,8.969-3.839,14.983,14.983,0,0,1,8.8,2.282,30.79,30.79,0,0,1,8.674,8.3,73.874,73.874,0,0,1,8.164,14.749,157.165,157.165,0,0,1,7.269,21.71c2.256,8.564,5.187,15,8.709,19.119,3.06,3.581,6.446,5.3,10.063,5.115,4.011-.207,8.119-2.83,11.566-7.384a37.665,37.665,0,0,0,6.823-16.714l.988.154A38.68,38.68,0,0,1,241.3,258.7c-3.629,4.793-8,7.556-12.312,7.779Q228.707,266.489,228.422,266.489Z" transform="translate(-143.345 -187.027)"/><path class="d" d="M176.521,198.373a7.636,7.636,0,1,1-7.635-7.635A7.636,7.636,0,0,1,176.521,198.373Z" transform="translate(-133.984 -190.738)"/><path class="e" d="M111.5.25H0v-.5H111.5Z" transform="translate(0 54.344)"/></g></g><g transform="translate(262.762 111.274)"><path class="l" d="M306.949,158.287V113.056a25.415,25.415,0,0,0-25.415-25.415H194.142a25.415,25.415,0,0,0-25.417,25.415V157.92a25.415,25.415,0,0,0,25.417,25.415H331.7Z" transform="translate(-168.725 -87.641)"/><g transform="translate(25.725 36.135)"><path class="g" d="M86.785,2.5H0A2.5,2.5,0,0,1-2.5,0,2.5,2.5,0,0,1,0-2.5H86.785a2.5,2.5,0,0,1,2.5,2.5A2.5,2.5,0,0,1,86.785,2.5Z"/><path class="g" d="M55.763,2.5H0A2.5,2.5,0,0,1-2.5,0,2.5,2.5,0,0,1,0-2.5H55.763a2.5,2.5,0,0,1,2.5,2.5A2.5,2.5,0,0,1,55.763,2.5Z" transform="translate(0 23.422)"/><path class="g" d="M13.844,2.5H0A2.5,2.5,0,0,1-2.5,0,2.5,2.5,0,0,1,0-2.5H13.844a2.5,2.5,0,0,1,2.5,2.5A2.5,2.5,0,0,1,13.844,2.5Z" transform="translate(73.878 23.422)"/></g></g><g transform="translate(123.672 307.16)"><path class="b" d="M607.226,261.929,672.15,199.87l9.9,49.158Z" transform="translate(385.054 -177.393)"/><rect class="h" width="46.705" height="46.705" transform="translate(1006.924 272.346) rotate(-20.667)"/><circle class="s" cx="24.661" cy="24.661" r="24.661" transform="translate(140)"/></g></g></svg>